<?xml version="1.0" encoding="UTF-8" standalone="no"?>
<svg
   width="512"
   height="512"
   style="shape-rendering:geometricPrecision;text-rendering:geometricPrecision;image-rendering:optimizeQuality;fill-rule:evenodd;clip-rule:evenodd"
   version="1.1"
   id="svg4652"
   sodipodi:docname="logo512 (1).svg"
   inkscape:version="1.1 (c4e8f9e, 2021-05-24)"
   xmlns:inkscape="http://www.inkscape.org/namespaces/inkscape"
   xmlns:sodipodi="http://sodipodi.sourceforge.net/DTD/sodipodi-0.dtd"
   xmlns="http://www.w3.org/2000/svg"
   xmlns:svg="http://www.w3.org/2000/svg">
  <defs
     id="defs4656" />
  <sodipodi:namedview
     id="namedview4654"
     pagecolor="#ffffff"
     bordercolor="#666666"
     borderopacity="1.0"
     inkscape:pageshadow="2"
     inkscape:pageopacity="0.0"
     inkscape:pagecheckerboard="0"
     showgrid="false"
     inkscape:zoom="1.0546875"
     inkscape:cx="197.21481"
     inkscape:cy="256"
     inkscape:window-width="1296"
     inkscape:window-height="762"
     inkscape:window-x="0"
     inkscape:window-y="25"
     inkscape:window-maximized="0"
     inkscape:current-layer="svg4652" />
  <path
     id="path4650"
     style="opacity:0.932;fill:#3056d2;fill-opacity:1"
     d="m 236.5,441.5 h 50 c -4.023,19.238 -10.523,37.572 -19.5,55 -4.249,3.013 -7.916,2.347 -11,-2 -7.786,-17.19 -14.286,-34.857 -19.5,-53 z m -13,-27 c 26.002,-0.167 52.002,0 78,0.5 6.935,4.55 8.768,10.717 5.5,18.5 -1.543,1.878 -3.376,3.378 -5.5,4.5 -26.333,0.667 -52.667,0.667 -79,0 -6.989,-4.128 -8.822,-9.961 -5.5,-17.5 1.914,-2.356 4.081,-4.356 6.5,-6 z m -58,-63 c 64.809,-0.496 129.476,0.004 194,1.5 -3.421,9.009 -8.254,17.176 -14.5,24.5 -11.712,12.722 -24.878,23.556 -39.5,32.5 -14.577,1.151 -29.244,1.651 -44,1.5 -14,-0.167 -28,-0.333 -42,-0.5 -26.523,-12.662 -44.523,-32.496 -54,-59.5 z m 32,-27 c 1.101,1.348 2.101,2.848 3,4.5 -2.981,0.838 -5.314,0.005 -7,-2.5 1.083,0.039 2.083,0.373 3,1 0.886,-0.825 1.219,-1.825 1,-3 z m 129,-1 c 0,1.333 0.667,2 2,2 -1.286,1.868 -2.619,2.034 -4,0.5 0.566,-0.995 1.233,-1.828 2,-2.5 z m -138,0 c 1.527,-0.073 2.527,0.594 3,2 -1.527,0.073 -2.527,-0.594 -3,-2 z m 146,-2 c -0.473,1.406 -1.473,2.073 -3,2 0.473,-1.406 1.473,-2.073 3,-2 z m -139,-3 c 1.238,1.714 1.905,3.714 2,6 -1.78,-1.49 -2.446,-3.49 -2,-6 z m -12,2 c 1.527,-0.073 2.527,0.594 3,2 -1.527,0.073 -2.527,-0.594 -3,-2 z m -3,-2 c 1.527,-0.073 2.527,0.594 3,2 -1.527,0.073 -2.527,-0.594 -3,-2 z m 149,-4 c 0.155,3.216 -0.845,5.883 -3,8 0.629,-2.897 1.629,-5.564 3,-8 z m 13,1 c -0.473,1.406 -1.473,2.073 -3,2 0.473,-1.406 1.473,-2.073 3,-2 z m -166,0 c 1.904,0.238 3.238,1.238 4,3 -1.904,-0.238 -3.238,-1.238 -4,-3 z m 18,-4 c 0.493,2.306 0.826,4.639 1,7 -2.034,-2.155 -2.367,-4.488 -1,-7 z m -23,0 c 2.249,0.58 3.915,1.913 5,4 -2.249,-0.58 -3.915,-1.913 -5,-4 z m 175,1 c -1.333,1 -2.667,2 -4,3 -1.527,-0.073 -2.527,0.594 -3,2 -1.079,2.043 -2.746,3.376 -5,4 -1.527,-0.073 -2.527,0.594 -3,2 -0.79,0.901 -1.79,1.568 -3,2 -1.333,0 -2,-0.667 -2,-2 v -1 c 2.155,-2.117 3.155,-4.784 3,-8 -0.302,-2.559 0.032,-4.893 1,-7 0.826,-4.482 1.326,-9.149 1.5,-14 5.978,4.477 11.811,9.143 17.5,14 -1.452,1.44 -2.452,3.106 -3,5 z m -180,-5 c 2.249,0.58 3.915,1.913 5,4 -2.249,-0.58 -3.915,-1.913 -5,-4 z m -14,-13 c 5.274,3.605 9.941,7.938 14,13 -5.274,-3.605 -9.941,-7.938 -14,-13 z m 41,-4 c -0.213,6.711 0.12,13.377 1,20 -1.265,-1.014 -1.931,-2.514 -2,-4.5 -0.393,-3.327 -0.727,-6.661 -1,-10 0.047,-2.295 0.713,-4.129 2,-5.5 z m -44,1 c 2,0 3,1 3,3 -1.333,-0.667 -2.333,-1.667 -3,-3 z m -9,-12 c 2.949,1.873 4.949,4.539 6,8 -2.475,-2.27 -4.475,-4.937 -6,-8 z m 214,25 c -2.333,3 -5,5.667 -8,8 0.548,-1.894 1.548,-3.56 3,-5 -5.689,-4.857 -11.522,-9.523 -17.5,-14 -0.174,4.851 -0.674,9.518 -1.5,14 0.086,-8.146 -0.914,-16.146 -3,-24 -0.355,-2.567 -1.021,-5.067 -2,-7.5 0.35,-1.257 1.017,-1.591 2,-1 9.833,7.833 19.667,15.667 29.5,23.5 -0.483,2.037 -1.316,4.037 -2.5,6 z m -216,-28 c 1.406,0.473 2.073,1.473 2,3 -1.406,-0.473 -2.073,-1.473 -2,-3 z m -3,-5 c 1.406,0.473 2.073,1.473 2,3 -1.406,-0.473 -2.073,-1.473 -2,-3 z m 62,-8 c -0.065,2.928 -0.732,5.595 -2,8 -0.206,-2.995 0.46,-5.662 2,-8 z m -67,-2 c 1.508,1.681 2.508,3.681 3,6 -2.039,-1.411 -3.039,-3.411 -3,-6 z m 89,-1 c 2.36,2.353 5.027,4.353 8,6 -0.017,1.528 -0.684,2.028 -2,1.5 -2.594,-2.086 -4.594,-4.586 -6,-7.5 z m 142,36 c -1.617,3.284 -3.95,5.951 -7,8 1.184,-1.963 2.017,-3.963 2.5,-6 -9.833,-7.833 -19.667,-15.667 -29.5,-23.5 -0.983,-0.591 -1.65,-0.257 -2,1 0.979,2.433 1.645,4.933 2,7.5 -3.237,-6.143 -6.237,-12.476 -9,-19 -0.934,-1.739 -0.934,-3.405 0,-5 14.514,10.758 28.847,21.758 43,33 0.792,1.2 0.792,2.533 0,4 z m -162,-39 c -0.095,2.286 -0.762,4.286 -2,6 -0.446,-2.51 0.22,-4.51 2,-6 z m 18,0 c 1.406,0.473 2.073,1.473 2,3 -1.406,-0.473 -2.073,-1.473 -2,-3 z m -14,-8 c -0.492,2.319 -1.492,4.319 -3,6 0.129,-1.716 0.462,-3.383 1,-5 0.667,-0.333 1.333,-0.667 2,-1 z m 10,-1 c 1.431,1.28 2.098,2.947 2,5 -1.431,-1.28 -2.098,-2.947 -2,-5 z m -89,-3 c 2.435,4.299 4.102,8.966 5,14 -2.435,-4.299 -4.102,-8.966 -5,-14 z m 88,-1 c 0.16,-1.699 -0.006,-3.366 -0.5,-5 -1.371,1.541 -2.871,2.875 -4.5,4 0.575,-1.911 1.575,-3.578 3,-5 0.996,0.086 1.829,-0.248 2.5,-1 0.796,2.539 0.629,4.872 -0.5,7 z m 155,44 c -1.647,2.973 -3.647,5.64 -6,8 0.792,-1.467 0.792,-2.8 0,-4 -14.153,-11.242 -28.486,-22.242 -43,-33 -0.934,1.595 -0.934,3.261 0,5 -5.997,-8.658 -11.997,-17.325 -18,-26 -1.429,-2.178 -2.263,-4.511 -2.5,-7 22.214,17.882 44.714,35.382 67.5,52.5 1.537,1.11 2.203,2.61 2,4.5 z m -245,-60 c 1.237,5.46 1.904,11.127 2,17 -1.705,-5.403 -2.372,-11.07 -2,-17 z m 248,55 c -0.25,2.174 -1.25,3.841 -3,5 0.203,-1.89 -0.463,-3.39 -2,-4.5 -22.786,-17.118 -45.286,-34.618 -67.5,-52.5 0.237,2.489 1.071,4.822 2.5,7 -5.387,-5.762 -10.054,-12.095 -14,-19 -0.149,-1.052 0.017,-2.052 0.5,-3 27.771,20.803 55.271,41.97 82.5,63.5 0.837,1.011 1.17,2.178 1,3.5 z m -221,-67 c 1.629,1.125 3.129,2.459 4.5,4 0.483,-0.948 0.649,-1.948 0.5,-3 h 1 c 0.285,1.788 -0.048,3.455 -1,5 -2.438,-1.431 -4.104,-3.431 -5,-6 z m -3,-4 c 1.762,0.762 2.762,2.096 3,4 -1.333,-0.667 -2.333,-1.667 -3,-3 z m -3,-5 c 1.406,0.473 2.073,1.473 2,3 -1.406,-0.473 -2.073,-1.473 -2,-3 z m 231,69 c -0.579,2.831 -1.912,5.164 -4,7 0.17,-1.322 -0.163,-2.489 -1,-3.5 -27.229,-21.53 -54.729,-42.697 -82.5,-63.5 -0.483,0.948 -0.649,1.948 -0.5,3 -5.003,-5.995 -9.003,-12.662 -12,-20 -0.157,-1.373 0.01,-2.707 0.5,-4 31.88,25.548 64.047,50.715 96.5,75.5 2.107,1.264 3.107,3.097 3,5.5 z m -245,-85 c -0.42,3.507 -1.42,6.841 -3,10 -0.403,2.986 -1.403,5.652 -3,8 0.628,-6.552 2.628,-12.552 6,-18 z m 75,56 c 0.172,0.992 -0.162,1.658 -1,2 -0.667,0.333 -1.333,0.667 -2,1 -14.48,-11.636 -29.147,-23.136 -44,-34.5 -1.316,-0.528 -1.983,-0.028 -2,1.5 h -1 c -1.572,-2.715 -2.572,-5.715 -3,-9 v -5 c 0.017,-1.528 0.684,-2.028 2,-1.5 16.713,13.715 33.713,27.048 51,40 1.036,1.776 1.036,3.609 0,5.5 z m -58,-34 c 0.667,1.333 1.667,2.333 3,3 0.896,2.569 2.562,4.569 5,6 0.952,-1.545 1.285,-3.212 1,-5 0.017,-1.528 0.684,-2.028 2,-1.5 14.853,11.364 29.52,22.864 44,34.5 -0.538,1.617 -0.871,3.284 -1,5 0.172,0.992 -0.162,1.658 -1,2 -1.78,1.49 -2.446,3.49 -2,6 -1.54,2.338 -2.206,5.005 -2,8 -0.854,6.312 -1.521,12.645 -2,19 -1.287,1.371 -1.953,3.205 -2,5.5 0.273,3.339 0.607,6.673 1,10 0.069,1.986 0.735,3.486 2,4.5 v 1 c -1.367,2.512 -1.034,4.845 1,7 -0.446,2.51 0.22,4.51 2,6 0.219,1.175 -0.114,2.175 -1,3 -0.917,-0.627 -1.917,-0.961 -3,-1 -0.992,0.172 -1.658,-0.162 -2,-1 -0.473,-1.406 -1.473,-2.073 -3,-2 -0.992,0.172 -1.658,-0.162 -2,-1 -0.473,-1.406 -1.473,-2.073 -3,-2 -0.473,-1.406 -1.473,-2.073 -3,-2 -0.762,-1.762 -2.096,-2.762 -4,-3 -1.085,-2.087 -2.751,-3.42 -5,-4 -1.085,-2.087 -2.751,-3.42 -5,-4 -4.059,-5.062 -8.726,-9.395 -14,-13 0,-2 -1,-3 -3,-3 -1,-1.333 -2,-2.667 -3,-4 -1.051,-3.461 -3.051,-6.127 -6,-8 0.073,-1.527 -0.594,-2.527 -2,-3 -0.838,-0.342 -1.172,-1.008 -1,-2 0.073,-1.527 -0.594,-2.527 -2,-3 -1.174,-1.014 -1.84,-2.347 -2,-4 -0.492,-2.319 -1.492,-4.319 -3,-6 -0.838,-0.342 -1.172,-1.008 -1,-2 -0.898,-5.034 -2.565,-9.701 -5,-14 -0.096,-5.873 -0.763,-11.54 -2,-17 -0.291,-6.423 0.042,-12.756 1,-19 1.597,-2.348 2.597,-5.014 3,-8 0.617,-0.111 1.117,-0.444 1.5,-1 5.788,4.967 11.954,9.301 18.5,13 z m 2,-20 c 1.212,3.28 2.212,6.613 3,10 v 5 c -1.875,-4.706 -2.875,-9.706 -3,-15 z m 1,-3 c 20.932,15.268 41.265,31.268 61,48 -1.425,1.422 -2.425,3.089 -3,5 -0.526,1.73 -1.526,3.064 -3,4 1.036,-1.891 1.036,-3.724 0,-5.5 -17.287,-12.952 -34.287,-26.285 -51,-40 -1.316,-0.528 -1.983,-0.028 -2,1.5 -0.788,-3.387 -1.788,-6.72 -3,-10 v -1 c 0.838,-0.342 1.172,-1.008 1,-2 z m -16,-7 c 1.478,4.548 2.978,9.214 4.5,14 0.383,0.556 0.883,0.889 1.5,1 1.605,2.878 2.939,5.878 4,9 -0.073,1.527 0.594,2.527 2,3 0.838,0.342 1.172,1.008 1,2 v 1 c -6.546,-3.699 -12.712,-8.033 -18.5,-13 -0.383,0.556 -0.883,0.889 -1.5,1 1.58,-3.159 2.58,-6.493 3,-10 -0.172,-0.992 0.162,-1.658 1,-2 1.508,-1.681 2.508,-3.681 3,-6 z m 17,-3 v 3 c -0.869,2.217 -1.202,4.55 -1,7 0.172,0.992 -0.162,1.658 -1,2 -0.624,-0.417 -0.957,-1.084 -1,-2 0.509,-3.603 1.509,-6.936 3,-10 z m -11,18 c -0.617,-0.111 -1.117,-0.444 -1.5,-1 -1.522,-4.786 -3.022,-9.452 -4.5,-14 -0.131,-0.876 0.202,-1.543 1,-2 1.514,5.725 3.181,11.391 5,17 z m 237,74 c -0.16,1.653 -0.826,2.986 -2,4 0.107,-2.403 -0.893,-4.236 -3,-5.5 -32.453,-24.785 -64.62,-49.952 -96.5,-75.5 -0.49,1.293 -0.657,2.627 -0.5,4 -1.431,-1.28 -2.098,-2.947 -2,-5 -0.557,-2.449 -0.557,-4.782 0,-7 33.857,26.358 67.857,52.525 102,78.5 1.729,1.789 2.396,3.956 2,6.5 z m -243,-89 c -0.492,2.319 -1.492,4.319 -3,6 -0.039,-2.589 0.961,-4.589 3,-6 z m 17,0 c 1.755,0.572 3.422,1.406 5,2.5 22.609,18.455 45.609,36.288 69,53.5 -0.295,2.235 0.039,4.235 1,6 0.901,6.929 1.568,13.929 2,21 -2.973,-1.647 -5.64,-3.647 -8,-6 0.073,-1.527 -0.594,-2.527 -2,-3 -1.174,-1.014 -1.84,-2.347 -2,-4 0.098,-2.053 -0.569,-3.72 -2,-5 -0.734,-1.208 -1.067,-2.541 -1,-4 1.129,-2.128 1.296,-4.461 0.5,-7 -0.671,0.752 -1.504,1.086 -2.5,1 -19.735,-16.732 -40.068,-32.732 -61,-48 -0.202,-2.45 0.131,-4.783 1,-7 z m 228,85 c -0.16,1.653 -0.826,2.986 -2,4 0.396,-2.544 -0.271,-4.711 -2,-6.5 -34.143,-25.975 -68.143,-52.142 -102,-78.5 -0.557,2.218 -0.557,4.551 0,7 -2.513,-3.878 -3.846,-8.211 -4,-13 -0.219,-1.175 0.114,-2.175 1,-3 36.476,27.976 72.81,56.142 109,84.5 0.638,1.707 0.638,3.54 0,5.5 z m -57,-92 c -0.065,0.438 0.101,0.772 0.5,1 0.816,-1.323 1.983,-1.989 3.5,-2 1.808,-0.009 3.475,0.491 5,1.5 18.152,14.575 36.485,28.908 55,43 1.467,2.378 2.467,4.878 3,7.5 v 7 c -0.533,-2.622 -1.533,-5.122 -3,-7.5 -56.068,-43.226 -112.068,-86.726 -168,-130.5 -0.917,0.6272 -1.917,0.9606 -3,1 1,-1.6667 2.333,-3 4,-4 1.347,-0.5283 2.681,-0.695 4,-0.5 32.954,25.285 65.62,50.952 98,77 -1.342,2.456 -1.009,4.622 1,6.5 z m -97,63 c -23.391,-17.212 -46.391,-35.045 -69,-53.5 -1.578,-1.094 -3.245,-1.928 -5,-2.5 v -3 c 1.604,-0.787 2.271,-2.12 2,-4 1.052,-0.149 2.052,0.017 3,0.5 22.924,17.713 45.757,35.546 68.5,53.5 0.498,2.982 0.665,5.982 0.5,9 z m 157,22 c -0.435,2.657 -1.435,4.991 -3,7 0.638,-1.96 0.638,-3.793 0,-5.5 -36.19,-28.358 -72.524,-56.524 -109,-84.5 -0.886,0.825 -1.219,1.825 -1,3 -0.961,-1.765 -1.295,-3.765 -1,-6 -0.375,-2.897 0.125,-5.563 1.5,-8 37.963,29.724 75.797,59.557 113.5,89.5 -0.88,1.356 -1.214,2.856 -1,4.5 z m 7,-44 v 10 c -0.533,-2.622 -1.533,-5.122 -3,-7.5 -18.515,-14.092 -36.848,-28.425 -55,-43 -1.525,-1.009 -3.192,-1.509 -5,-1.5 0.342,-0.838 1.008,-1.172 2,-1 2.512,-1.428 5.178,-1.928 8,-1.5 16.38,13.382 33.047,26.382 50,39 1.369,1.719 2.369,3.552 3,5.5 z m -163,15 v 13 c -0.961,-1.765 -1.295,-3.765 -1,-6 0.165,-3.018 -0.002,-6.018 -0.5,-9 -22.743,-17.954 -45.576,-35.787 -68.5,-53.5 -0.948,-0.483 -1.948,-0.649 -3,-0.5 0.271,1.88 -0.396,3.213 -2,4 0.565,-4.037 1.899,-7.703 4,-11 0.65,-0.304 1.317,-0.637 2,-1 22.524,17.691 45.191,35.191 68,52.5 0.96,3.73 1.293,7.563 1,11.5 z m 163,-23 v 8 c -0.631,-1.948 -1.631,-3.781 -3,-5.5 -16.953,-12.618 -33.62,-25.618 -50,-39 -2.822,-0.428 -5.488,0.072 -8,1.5 2.82,-2.245 5.82,-4.245 9,-6 0.996,0.086 1.829,-0.248 2.5,-1 15.409,12.287 30.909,24.454 46.5,36.5 1.109,1.876 2.109,3.709 3,5.5 z m -3,-19 c 1.756,6.201 2.756,12.535 3,19 -0.891,-1.791 -1.891,-3.624 -3,-5.5 -15.591,-12.046 -31.091,-24.213 -46.5,-36.5 -0.671,0.752 -1.504,1.086 -2.5,1 2.695,-3.026 5.362,-6.026 8,-9 0.958,-0.453 1.792,-1.119 2.5,-2 10.229,8.529 20.729,16.696 31.5,24.5 3.19,2.263 5.523,5.096 7,8.5 z m -2,65 c -0.095,2.286 -0.762,4.286 -2,6 -0.214,-1.644 0.12,-3.144 1,-4.5 -37.703,-29.943 -75.537,-59.776 -113.5,-89.5 -1.375,2.437 -1.875,5.103 -1.5,8 -0.973,-2.448 -1.306,-5.115 -1,-8 0.809,-1.792 1.309,-3.792 1.5,-6 0.718,-0.951 1.551,-1.117 2.5,-0.5 l 108,84 c 4.007,2.338 5.674,5.838 5,10.5 z m -156,-38 c -0.434,5.168 -1.1,10.168 -2,15 0.293,-3.937 -0.04,-7.77 -1,-11.5 -22.809,-17.309 -45.476,-34.809 -68,-52.5 -0.683,0.363 -1.35,0.696 -2,1 -0.098,-2.053 0.569,-3.72 2,-5 1.757,-0.792 3.091,-2.125 4,-4 l 66,51 c 0.557,2.146 0.89,4.146 1,6 z m 149,-51 c 4.075,7.504 7.075,15.504 9,24 -1.477,-3.404 -3.81,-6.237 -7,-8.5 -10.771,-7.804 -21.271,-15.971 -31.5,-24.5 -0.708,0.881 -1.542,1.547 -2.5,2 1.335,-3.672 2.668,-7.338 4,-11 0.958,-0.453 1.792,-1.119 2.5,-2 8.089,7.263 16.589,13.929 25.5,20 z m -148,41 v 5 c 0.134,1.792 -0.199,3.458 -1,5 -0.11,-1.854 -0.443,-3.854 -1,-6 l -66,-51 c -0.909,1.875 -2.243,3.208 -4,4 0.579,-2.831 1.912,-5.164 4,-7 1.25,-0.077 2.083,-0.744 2.5,-2 22.021,17.197 43.854,34.531 65.5,52 z m 0,0 c -21.646,-17.469 -43.479,-34.803 -65.5,-52 -0.417,1.256 -1.25,1.923 -2.5,2 0.25,-2.174 1.25,-3.841 3,-5 0.982,-0.641 1.982,-1.307 3,-2 20.475,15.308 40.809,30.808 61,46.5 3.491,3.202 3.824,6.702 1,10.5 z m 5,-10 c -1.497,5.159 -3.164,10.159 -5,15 v -5 c 2.824,-3.798 2.491,-7.298 -1,-10.5 -20.191,-15.692 -40.525,-31.192 -61,-46.5 -1.018,0.693 -2.018,1.359 -3,2 0.238,-1.904 1.238,-3.238 3,-4 1.411,-1.408 3.077,-2.408 5,-3 20.117,14.942 40.117,30.108 60,45.5 1.729,1.789 2.396,3.956 2,6.5 z m 143,-31 c -8.911,-6.071 -17.411,-12.737 -25.5,-20 -0.708,0.881 -1.542,1.547 -2.5,2 1.232,-5.999 2.399,-11.999 3.5,-18 10.413,10.499 18.579,22.499 24.5,36 z m -139,23 c -0.826,2.985 -2.159,5.651 -4,8 0.396,-2.544 -0.271,-4.711 -2,-6.5 -19.883,-15.392 -39.883,-30.558 -60,-45.5 -1.923,0.592 -3.589,1.592 -5,3 1.611,-3.551 3.944,-6.551 7,-9 0.923,-0.803 1.923,-0.97 3,-0.5 19.047,15.382 38.381,30.382 58,45 2.107,1.264 3.107,3.097 3,5.5 z m 2,-3 c 0.073,1.527 -0.594,2.527 -2,3 0.107,-2.403 -0.893,-4.236 -3,-5.5 -19.619,-14.618 -38.953,-29.618 -58,-45 -1.077,-0.47 -2.077,-0.303 -3,0.5 0.238,-1.904 1.238,-3.238 3,-4 1.083,-0.039 2.083,-0.373 3,-1 19.524,15.358 39.191,30.525 59,45.5 2.334,1.842 2.668,4.009 1,6.5 z m -57,-56 c 20.478,15.977 40.811,32.144 61,48.5 -0.489,1.138 -0.822,2.305 -1,3.5 -0.526,1.73 -1.526,3.064 -3,4 1.668,-2.491 1.334,-4.658 -1,-6.5 -19.809,-14.975 -39.476,-30.142 -59,-45.5 -0.917,0.627 -1.917,0.961 -3,1 0.333,-1 1,-1.667 2,-2 1.333,-1 2.667,-2 4,-3 z m 4,-4 c 18.527,15.351 37.527,30.185 57,44.5 2.419,1.509 3.419,3.675 3,6.5 -1.104,1.889 -2.437,3.555 -4,5 0.178,-1.195 0.511,-2.362 1,-3.5 -20.189,-16.356 -40.522,-32.523 -61,-48.5 1,-1.667 2.333,-3 4,-4 z m 4,-4 c 18.569,15.296 37.569,30.13 57,44.5 1.399,1.062 2.399,2.395 3,4 -0.914,1.406 -1.58,2.906 -2,4.5 -0.333,1 -1,1.667 -2,2 0.419,-2.825 -0.581,-4.991 -3,-6.5 -19.473,-14.315 -38.473,-29.149 -57,-44.5 1,-1.667 2.333,-3 4,-4 z m 3,-3 c 19.637,15.158 39.303,30.325 59,45.5 1.537,1.11 2.203,2.61 2,4.5 -1.667,2.333 -3.667,4.333 -6,6 0.42,-1.594 1.086,-3.094 2,-4.5 -0.601,-1.605 -1.601,-2.938 -3,-4 -19.431,-14.37 -38.431,-29.204 -57,-44.5 0.667,-1.333 1.667,-2.333 3,-3 z m 68,44 c -2.107,2.227 -4.44,4.227 -7,6 0.203,-1.89 -0.463,-3.39 -2,-4.5 -19.697,-15.175 -39.363,-30.342 -59,-45.5 1.627,-2.13 3.46,-4.13 5.5,-6 20.167,15.5 40.333,31 60.5,46.5 1.323,0.816 1.989,1.983 2,3.5 z m -58,-54 c 21.457,16.285 42.791,32.785 64,49.5 -0.881,0.708 -1.547,1.542 -2,2.5 -1.333,0.667 -2.667,1.333 -4,2 -0.011,-1.517 -0.677,-2.684 -2,-3.5 -20.167,-15.5 -40.333,-31 -60.5,-46.5 -2.04,1.87 -3.873,3.87 -5.5,6 -1.333,0.667 -2.333,1.667 -3,3 -1.667,1 -3,2.333 -4,4 -1.667,1 -3,2.333 -4,4 -1.333,1 -2.667,2 -4,3 6.276,-7.945 13.276,-15.278 21,-22 1.562,-0.233 2.895,-0.9 4,-2 z m 181,142 c 0.268,1.599 -0.066,2.932 -1,4 0.674,-4.662 -0.993,-8.162 -5,-10.5 l -108,-84 c -0.949,-0.617 -1.782,-0.451 -2.5,0.5 -0.191,2.208 -0.691,4.208 -1.5,6 0.295,-2.235 -0.039,-4.235 -1,-6 0.453,-0.958 1.119,-1.792 2,-2.5 -21.209,-16.715 -42.543,-33.215 -64,-49.5 1.553,-2.754 3.886,-3.587 7,-2.5 58.167,45.5 116.333,91 174.5,136.5 -0.083,2.619 -0.25,5.286 -0.5,8 z m 2,-8 c 0.206,2.995 -0.46,5.662 -2,8 0.25,-2.714 0.417,-5.381 0.5,-8 C 326.833,198 268.667,152.5 210.5,107 c -3.114,-1.087 -5.447,-0.254 -7,2.5 -1.105,1.1 -2.438,1.767 -4,2 1.667,-2.333 3.667,-4.333 6,-6 2.618,-1.831 5.285,-3.331 8,-4.5 55.714,44.049 111.714,87.715 168,131 4.138,2.677 5.805,6.51 5,11.5 z m 2,-9 c -0.358,3.189 -1.025,6.189 -2,9 0.805,-4.99 -0.862,-8.823 -5,-11.5 -56.286,-43.285 -112.286,-86.951 -168,-131 -2.715,1.169 -5.382,2.669 -8,4.5 2.38,-3.381 5.38,-6.0472 9,-8 1.083,-0.0394 2.083,-0.3728 3,-1 55.932,43.774 111.932,87.274 168,130.5 1.467,2.378 2.467,4.878 3,7.5 z m -164,-147 c 31.97,24.658 63.97,49.325 96,74 0.966,1.896 1.299,3.896 1,6 v 9 c -2.009,-1.878 -2.342,-4.044 -1,-6.5 -32.38,-26.048 -65.046,-51.715 -98,-77 -1.319,-0.195 -2.653,-0.0283 -4,0.5 1.667,-2.3333 3.667,-4.3333 6,-6 z m 99,73 c -0.427,2.51 -1.093,4.843 -2,7 0.299,-2.104 -0.034,-4.104 -1,-6 -32.03,-24.675 -64.03,-49.342 -96,-74 v -1 c 1.696,-0.1854 3.029,-1.0187 4,-2.5 1,-0.6667 2,-0.6667 3,0 30,23.333 60,46.667 90,70 0.617,2.277 1.284,4.444 2,6.5 z m 1,-12 c -0.005,4.034 -0.338,8.034 -1,12 -0.716,-2.056 -1.383,-4.223 -2,-6.5 -30,-23.333 -60,-46.667 -90,-70 -1,-0.6667 -2,-0.6667 -3,0 -0.971,1.4813 -2.304,2.3146 -4,2.5 2.667,-3.3333 5.667,-6.3333 9,-9 0.65,-0.3039 1.317,-0.6373 2,-1 29.18,22.0912 58.18,44.425 87,67 1.062,1.522 1.729,3.188 2,5 z m 1,-8 c 0.306,2.885 -0.027,5.552 -1,8 -0.271,-1.812 -0.938,-3.478 -2,-5 -28.82,-22.575 -57.82,-44.9088 -87,-67 -0.683,0.3627 -1.35,0.6961 -2,1 1.286,-2.617 2.953,-4.9504 5,-7 1.44,-0.8629 2.774,-0.8629 4,0 26.19,20.691 52.524,41.191 79,61.5 2.308,2.447 3.641,5.281 4,8.5 z m -83,-76 c 1.808,-0.0086 3.475,0.4914 5,1.5 25.875,20.7143 51.875,41.214 78,61.5 v 13 c -0.359,-3.219 -1.692,-6.053 -4,-8.5 -26.476,-20.309 -52.81,-40.809 -79,-61.5 -1.226,-0.8629 -2.56,-0.8629 -4,0 1.333,-2 2.667,-4 4,-6 z m 82,56 c 0.719,2.264 1.052,4.597 1,7 -26.125,-20.286 -52.125,-40.7857 -78,-61.5 -1.525,-1.0086 -3.192,-1.5086 -5,-1.5 0.763,-1.8684 1.763,-3.5351 3,-5 0.617,-0.1107 1.117,-0.444 1.5,-1 22.229,17.8625 44.729,35.3625 67.5,52.5 3.894,2.731 7.227,5.898 10,9.5 z m -74,-74 c 23.642,18.6361 47.309,37.3028 71,56 1.643,5.859 2.643,11.859 3,18 -2.773,-3.602 -6.106,-6.769 -10,-9.5 C 291.729,93.8625 269.229,76.3625 247,58.5 c -0.383,0.556 -0.883,0.8893 -1.5,1 1.887,-4.3415 3.554,-8.6749 5,-13 z m 71,56 c -23.691,-18.6972 -47.358,-37.3639 -71,-56 1.697,-12.1947 -0.636,-23.5281 -7,-34 0.5,-0.3333 1,-0.6667 1.5,-1 39.47,18.6331 64.97,48.9664 76.5,91 z" />
</svg>
