<?xml version="1.0" encoding="UTF-8"?>
<!DOCTYPE svg PUBLIC "-//W3C//DTD SVG 1.1//EN" "http://www.w3.org/Graphics/SVG/1.1/DTD/svg11.dtd">
<!-- Creator: CorelDRAW X5 -->
<svg xmlns="http://www.w3.org/2000/svg" xml:space="preserve" width="140" height="38" style="shape-rendering:geometricPrecision; text-rendering:geometricPrecision; image-rendering:optimizeQuality; fill-rule:evenodd; clip-rule:evenodd" viewBox="0 0 6.07291 2.3828" 
    xmlns:xlink="http://www.w3.org/1999/xlink">
    <defs>
        <style type="text/css">
            <![CDATA[
    .fil1 {fill:none}
    .fil0 {fill:#FEFEFE}
    .fil2 {fill:#FEFEFE;fill-rule:nonzero}
   ]]>
        </style>
        <clipPath id="id0">
            <path d="M0.468701 1.52345c-0.0572362,-0.10198 -0.0378268,-0.341969 0.0599173,-0.410902 -0.012689,0.0437087 0.00890945,0.103854 0.0643819,0.136819 -0.0247756,-0.207449 -0.00339764,-0.354874 0.162764,-0.475732 0.00538583,-0.00391732 0.0205354,-0.010185 0.0196693,-0.00357874 -0.0364606,0.278665 0.384736,0.453295 0.259331,0.740433 0.335409,-0.202539 0.36285,-0.613339 0.116252,-0.870988 -0.00119291,0.0149016 -0.00238583,0.0298071 -0.00357874,0.0447087 -0.0188031,0.0940079 -0.0462008,0.118154 -0.130559,0.164543 -0.00193701,0.00118898 -0.00387402,0.00238189 -0.00581102,0.0035748 0,-0.0132677 -0.0030315,-0.0268819 0,-0.0397953 0.0708937,-0.301803 -0.0644173,-0.570591 -0.341157,-0.706902 0.166311,0.28361 -0.321059,0.413634 -0.417004,0.749327 -0.0219803,0.0769016 0.0108228,0.164693 0.0172717,0.193445 -0.0471063,-0.0425039 -0.0832795,-0.117835 -0.0921102,-0.180634 -0.15574,0.275476 0.0610945,0.534681 0.290634,0.655681z"/>
        </clipPath>
    </defs>
    <g id="Layer_x0020_1">
        <metadata id="CorelCorpID_0Corel-Layer"/>
        <g id="_195177176">
            <g>
                <g>
                </g>
                <g style="clip-path:url(#id0)">
                    <g>
                        <rect id="_195177152" class="fil0" x="-0.386198" y="0.0236745" width="2.63263" height="1.97447"/>
                    </g>
                </g>
                <path class="fil1" d="M0.468701 1.52345c-0.0572362,-0.10198 -0.0378268,-0.341969 0.0599173,-0.410902 -0.012689,0.0437087 0.00890945,0.103854 0.0643819,0.136819 -0.0247756,-0.207449 -0.00339764,-0.354874 0.162764,-0.475732 0.00538583,-0.00391732 0.0205354,-0.010185 0.0196693,-0.00357874 -0.0364606,0.278665 0.384736,0.453295 0.259331,0.740433 0.335409,-0.202539 0.36285,-0.613339 0.116252,-0.870988 -0.00119291,0.0149016 -0.00238583,0.0298071 -0.00357874,0.0447087 -0.0188031,0.0940079 -0.0462008,0.118154 -0.130559,0.164543 -0.00193701,0.00118898 -0.00387402,0.00238189 -0.00581102,0.0035748 0,-0.0132677 -0.0030315,-0.0268819 0,-0.0397953 0.0708937,-0.301803 -0.0644173,-0.570591 -0.341157,-0.706902 0.166311,0.28361 -0.321059,0.413634 -0.417004,0.749327 -0.0219803,0.0769016 0.0108228,0.164693 0.0172717,0.193445 -0.0471063,-0.0425039 -0.0832795,-0.117835 -0.0921102,-0.180634 -0.15574,0.275476 0.0610945,0.534681 0.290634,0.655681z"/>
                <g>
                    <path id="_196938408" class="fil0" d="M0.571276 1.88912c-0.10598,-0.0475039 -0.200453,-0.132 -0.252476,-0.261307 0.286874,1.1811e-005 0.574957,-0.000149606 0.861957,0 -0.025122,0.0921535 -0.160776,0.214209 -0.257776,0.261244 -0.117276,-6.29921e-005 -0.234362,-6.29921e-005 -0.351705,6.29921e-005z"/>
                    <path id="_196938320" class="fil0" d="M0.57739 2.006c0.11511,0.000165354 0.230606,-0.000610236 0.345591,6.29921e-005 0.0393268,-0.0187362 0.0438465,-0.0708071 0.00201969,-0.0968346 -0.115657,0 -0.231319,0 -0.346976,0 -0.037374,0.0168071 -0.0541535,0.0711496 -0.000633858,0.0967717z"/>
                    <path id="_196937912" class="fil0" d="M0.639551 2.02724l0.21787 0c-0.103031,0.333524 -0.110776,0.332925 -0.21787,0z"/>
                </g>
            </g>
            <polygon class="fil2" points="1.78545,0.973984 2.24621,0.973984 2.24621,1.08413 1.91237,1.08413 1.91237,1.32824 2.18658,1.32824 2.18658,1.44215 1.91237,1.44215 1.91237,1.84433 1.78545,1.84433 "/>
            <polygon id="1" class="fil2" points="2.65728,0.966709 2.78419,0.966709 2.78419,1.72089 3.23374,1.72089 3.23374,1.83705 2.65728,1.83705 "/>
            <path id="12" class="fil2" d="M3.81606 1.07484l-0.100661 0.398917 0.202346 0 -0.101685 -0.398917zm-0.0835866 -0.113902l0.178394 0 0.235984 0.883386 -0.138126 0 -0.0626929 -0.254406 -0.259941 0 -0.0642205 0.254406 -0.123854 0 0.234457 -0.883386z"/>
            <path id="123" class="fil2" d="M4.60073 1.08563l0 0.27874 0.0978622 0c0.0621811,0 0.108815,-0.0110394 0.139909,-0.0333701 0.0310906,-0.0223307 0.0466378,-0.0562008 0.0466378,-0.10111 0,-0.0506811 -0.0150354,-0.087311 -0.0448543,-0.110142 -0.029815,-0.0228307 -0.0779803,-0.0341181 -0.144752,-0.0341181l-0.0948031 0zm-0.126913 -0.11165l0.239047 0c0.103976,0 0.181449,0.0208268 0.232673,0.0622205 0.0512244,0.0413976 0.0769606,0.10387 0.0769606,0.187669 0,0.0637244 -0.0155433,0.115409 -0.0466378,0.154799 -0.0310866,0.0393898 -0.0764528,0.0657323 -0.136087,0.0790315l0.229106 0.386622 -0.153161 0 -0.206677 -0.366051 -0.108311 0 0 0.366051 -0.126913 0 0 -0.870343z"/>
            <polygon id="1234" class="fil2" points="5.40477,0.973984 5.93409,0.973984 5.93409,1.08287 5.53169,1.08287 5.53169,1.32598 5.88567,1.32598 5.88567,1.44064 5.53169,1.44064 5.53169,1.72089 5.94759,1.72089 5.94759,1.83705 5.40477,1.83705 "/>
        </g>
    </g>
</svg>
