<?xml version="1.0" encoding="utf-8"?>
<svg fill="none" height="48" viewBox="0 0 49 48" width="49" xmlns="http://www.w3.org/2000/svg">
  <path d="m24.5 48c13.2548 0 24-10.7452 24-24s-10.7452-24-24-24-24 10.7452-24 24 10.7452 24 24 24z" fill="#3056d3"/>
  <path id="path4650" style="opacity: 0.932; fill-opacity: 1; fill: rgb(255, 255, 255);" d="M 22.997 35.536 L 26.532 35.536 C 26.245 36.696 25.787 37.801 25.153 38.855 C 24.852 39.036 24.593 38.997 24.375 38.733 C 23.826 37.696 23.367 36.63 22.997 35.536 Z M 22.08 33.907 C 23.915 33.896 25.754 33.907 27.591 33.936 C 28.081 34.211 28.209 34.583 27.979 35.054 C 27.87 35.167 27.74 35.257 27.591 35.323 C 25.73 35.365 23.869 35.365 22.009 35.323 C 21.516 35.076 21.384 34.725 21.62 34.269 C 21.754 34.126 21.907 34.005 22.08 33.907 Z M 17.98 30.105 C 22.56 30.076 27.129 30.105 31.689 30.196 C 31.448 30.738 31.106 31.233 30.665 31.673 C 29.836 32.44 28.906 33.095 27.872 33.636 C 26.843 33.705 25.806 33.734 24.766 33.725 C 23.773 33.716 22.786 33.706 21.797 33.696 C 19.922 32.931 18.649 31.735 17.98 30.105 Z M 20.243 28.475 C 20.32 28.558 20.39 28.648 20.455 28.749 C 20.244 28.798 20.077 28.749 19.961 28.596 C 20.034 28.6 20.106 28.62 20.172 28.657 C 20.235 28.607 20.258 28.546 20.243 28.475 Z M 29.355 28.416 C 29.355 28.496 29.404 28.536 29.498 28.536 C 29.407 28.65 29.312 28.66 29.214 28.567 C 29.256 28.508 29.303 28.455 29.355 28.416 Z M 19.606 28.416 C 19.715 28.413 19.784 28.452 19.817 28.536 C 19.711 28.541 19.64 28.499 19.606 28.416 Z M 29.923 28.295 C 29.889 28.38 29.82 28.419 29.71 28.416 C 29.743 28.33 29.814 28.291 29.923 28.295 Z M 20.101 28.113 C 20.187 28.218 20.236 28.339 20.243 28.475 C 20.115 28.386 20.071 28.266 20.101 28.113 Z M 19.254 28.235 C 19.362 28.23 19.431 28.272 19.464 28.357 C 19.356 28.361 19.286 28.321 19.254 28.235 Z M 19.041 28.113 C 19.149 28.109 19.218 28.15 19.254 28.235 C 19.146 28.238 19.075 28.199 19.041 28.113 Z M 29.569 27.872 C 29.579 28.066 29.508 28.229 29.355 28.357 C 29.4 28.18 29.472 28.019 29.569 27.872 Z M 30.486 27.933 C 30.455 28.018 30.385 28.059 30.276 28.055 C 30.309 27.969 30.379 27.93 30.486 27.933 Z M 18.758 27.933 C 18.893 27.947 18.988 28.006 19.041 28.113 C 18.905 28.101 18.812 28.04 18.758 27.933 Z M 20.031 27.692 C 20.065 27.83 20.09 27.972 20.101 28.113 C 19.957 27.983 19.933 27.842 20.031 27.692 Z M 18.404 27.692 C 18.563 27.725 18.683 27.805 18.758 27.933 C 18.601 27.896 18.48 27.818 18.404 27.692 Z M 30.77 27.754 C 30.675 27.813 30.582 27.872 30.486 27.933 C 30.379 27.93 30.309 27.969 30.276 28.055 C 30.2 28.177 30.08 28.257 29.923 28.295 C 29.814 28.291 29.743 28.33 29.71 28.416 C 29.654 28.471 29.583 28.511 29.498 28.536 C 29.404 28.536 29.355 28.496 29.355 28.416 L 29.355 28.357 C 29.508 28.229 29.579 28.066 29.569 27.872 C 29.547 27.719 29.571 27.578 29.64 27.451 C 29.697 27.179 29.736 26.899 29.745 26.605 C 30.168 26.875 30.58 27.157 30.983 27.451 C 30.879 27.537 30.809 27.636 30.77 27.754 Z M 18.051 27.451 C 18.211 27.485 18.329 27.564 18.404 27.692 C 18.246 27.656 18.127 27.576 18.051 27.451 Z M 17.062 26.665 C 17.434 26.883 17.765 27.144 18.051 27.451 C 17.68 27.234 17.35 26.971 17.062 26.665 Z M 19.961 26.425 C 19.943 26.829 19.969 27.231 20.031 27.631 C 19.94 27.571 19.893 27.481 19.888 27.36 C 19.86 27.159 19.837 26.957 19.817 26.755 C 19.821 26.617 19.868 26.507 19.961 26.425 Z M 16.849 26.485 C 16.991 26.485 17.062 26.545 17.062 26.665 C 16.968 26.624 16.899 26.565 16.849 26.485 Z M 16.216 25.759 C 16.422 25.875 16.564 26.034 16.637 26.245 C 16.464 26.106 16.321 25.946 16.216 25.759 Z M 31.337 27.269 C 31.169 27.451 30.983 27.611 30.77 27.754 C 30.809 27.636 30.879 27.537 30.983 27.451 C 30.58 27.157 30.168 26.875 29.745 26.605 C 29.736 26.899 29.697 27.179 29.64 27.451 C 29.645 26.958 29.576 26.476 29.428 26.002 C 29.401 25.847 29.354 25.696 29.286 25.55 C 29.311 25.473 29.36 25.454 29.428 25.49 C 30.121 25.962 30.816 26.434 31.511 26.906 C 31.479 27.029 31.42 27.152 31.337 27.269 Z M 16.073 25.579 C 16.173 25.608 16.219 25.669 16.216 25.759 C 16.115 25.732 16.067 25.673 16.073 25.579 Z M 15.861 25.278 C 15.961 25.305 16.007 25.367 16.003 25.458 C 15.903 25.431 15.856 25.371 15.861 25.278 Z M 20.243 24.795 C 20.238 24.973 20.19 25.132 20.101 25.278 C 20.084 25.097 20.133 24.936 20.243 24.795 Z M 15.508 24.675 C 15.616 24.775 15.686 24.895 15.72 25.037 C 15.576 24.951 15.505 24.831 15.508 24.675 Z M 21.797 24.615 C 21.962 24.757 22.149 24.878 22.36 24.976 C 22.359 25.069 22.314 25.099 22.219 25.067 C 22.037 24.94 21.895 24.789 21.797 24.615 Z M 31.829 26.787 C 31.716 26.985 31.552 27.146 31.337 27.269 C 31.42 27.152 31.479 27.029 31.511 26.906 C 30.816 26.434 30.121 25.962 29.428 25.49 C 29.36 25.454 29.311 25.473 29.286 25.55 C 29.354 25.696 29.401 25.847 29.428 26.002 C 29.197 25.632 28.986 25.249 28.793 24.856 C 28.724 24.751 28.724 24.651 28.793 24.552 C 29.819 25.203 30.831 25.867 31.829 26.545 C 31.885 26.617 31.885 26.698 31.829 26.787 Z M 20.384 24.434 C 20.376 24.571 20.328 24.693 20.243 24.795 C 20.211 24.644 20.258 24.524 20.384 24.434 Z M 21.655 24.434 C 21.754 24.461 21.803 24.524 21.797 24.615 C 21.697 24.586 21.65 24.526 21.655 24.434 Z M 20.665 23.951 C 20.631 24.091 20.56 24.211 20.455 24.312 C 20.462 24.208 20.487 24.11 20.526 24.01 C 20.571 23.99 20.618 23.97 20.665 23.951 Z M 21.373 23.891 C 21.473 23.967 21.521 24.068 21.516 24.192 C 21.414 24.114 21.364 24.016 21.373 23.891 Z M 15.083 23.709 C 15.257 23.968 15.375 24.251 15.437 24.552 C 15.265 24.293 15.148 24.016 15.083 23.709 Z M 21.302 23.651 C 21.314 23.547 21.301 23.444 21.268 23.347 C 21.169 23.44 21.063 23.521 20.949 23.588 C 20.989 23.473 21.059 23.373 21.161 23.288 C 21.231 23.292 21.289 23.272 21.338 23.228 C 21.392 23.38 21.381 23.521 21.302 23.651 Z M 32.253 26.304 C 32.138 26.483 31.996 26.645 31.829 26.787 C 31.885 26.698 31.885 26.617 31.829 26.545 C 30.831 25.867 29.819 25.203 28.793 24.552 C 28.724 24.651 28.724 24.751 28.793 24.856 C 28.367 24.334 27.944 23.811 27.519 23.288 C 27.417 23.157 27.359 23.014 27.343 22.864 C 28.912 23.944 30.503 25 32.111 26.033 C 32.221 26.098 32.269 26.189 32.253 26.304 Z M 14.941 22.684 C 15.031 23.013 15.077 23.356 15.083 23.709 C 14.963 23.384 14.916 23.041 14.941 22.684 Z M 32.465 26.002 C 32.449 26.133 32.379 26.234 32.253 26.304 C 32.269 26.189 32.221 26.098 32.111 26.033 C 30.503 25 28.912 23.944 27.343 22.864 C 27.359 23.014 27.417 23.157 27.519 23.288 C 27.14 22.939 26.809 22.557 26.532 22.141 C 26.519 22.078 26.532 22.016 26.564 21.958 C 28.528 23.215 30.47 24.493 32.395 25.791 C 32.455 25.851 32.477 25.921 32.465 26.002 Z M 16.849 21.958 C 16.964 22.027 17.071 22.108 17.171 22.2 C 17.202 22.143 17.216 22.085 17.204 22.019 L 17.276 22.019 C 17.294 22.126 17.271 22.23 17.204 22.321 C 17.032 22.236 16.913 22.114 16.849 21.958 Z M 16.637 21.717 C 16.763 21.764 16.834 21.846 16.849 21.958 C 16.757 21.919 16.686 21.86 16.637 21.779 L 16.637 21.717 Z M 16.427 21.416 C 16.524 21.445 16.574 21.504 16.568 21.598 C 16.47 21.569 16.421 21.508 16.427 21.416 Z M 32.749 25.579 C 32.707 25.751 32.613 25.891 32.465 26.002 C 32.477 25.921 32.455 25.851 32.395 25.791 C 30.47 24.493 28.528 23.215 26.564 21.958 C 26.532 22.016 26.519 22.078 26.532 22.141 C 26.178 21.779 25.894 21.376 25.682 20.935 C 25.671 20.85 25.683 20.77 25.717 20.694 C 27.97 22.235 30.242 23.752 32.536 25.248 C 32.684 25.325 32.757 25.435 32.749 25.579 Z M 15.437 20.45 C 15.407 20.661 15.336 20.864 15.225 21.053 C 15.195 21.235 15.126 21.394 15.014 21.538 C 15.058 21.141 15.199 20.779 15.437 20.45 Z M 20.735 23.83 C 20.748 23.891 20.724 23.93 20.665 23.951 C 20.618 23.97 20.571 23.99 20.526 24.01 C 19.503 23.309 18.465 22.616 17.414 21.93 C 17.323 21.897 17.276 21.926 17.276 22.019 L 17.204 22.019 C 17.091 21.855 17.021 21.676 16.991 21.477 L 16.991 21.176 C 16.994 21.084 17.039 21.052 17.134 21.085 C 18.314 21.911 19.513 22.717 20.735 23.498 C 20.811 23.606 20.811 23.716 20.735 23.83 Z M 16.637 21.779 C 16.686 21.86 16.757 21.919 16.849 21.958 C 16.913 22.114 17.032 22.236 17.204 22.321 C 17.271 22.23 17.294 22.126 17.276 22.019 C 17.276 21.926 17.323 21.897 17.414 21.93 C 18.465 22.616 19.503 23.309 20.526 24.01 C 20.487 24.11 20.462 24.208 20.455 24.312 C 20.465 24.373 20.444 24.412 20.384 24.434 C 20.258 24.524 20.211 24.644 20.243 24.795 C 20.133 24.936 20.084 25.097 20.101 25.278 C 20.04 25.659 19.993 26.041 19.961 26.425 C 19.868 26.507 19.821 26.617 19.817 26.755 C 19.837 26.957 19.86 27.159 19.888 27.36 C 19.893 27.481 19.94 27.571 20.031 27.631 L 20.031 27.692 C 19.933 27.842 19.957 27.983 20.101 28.113 C 20.071 28.266 20.115 28.386 20.243 28.475 C 20.258 28.546 20.235 28.607 20.172 28.657 C 20.106 28.62 20.034 28.6 19.961 28.596 C 19.889 28.607 19.842 28.586 19.817 28.536 C 19.784 28.452 19.715 28.413 19.606 28.416 C 19.535 28.425 19.487 28.405 19.464 28.357 C 19.431 28.272 19.362 28.23 19.254 28.235 C 19.218 28.15 19.149 28.109 19.041 28.113 C 18.988 28.006 18.893 27.947 18.758 27.933 C 18.683 27.805 18.563 27.725 18.404 27.692 C 18.329 27.564 18.211 27.485 18.051 27.451 C 17.765 27.144 17.434 26.883 17.062 26.665 C 17.062 26.545 16.991 26.485 16.849 26.485 C 16.78 26.405 16.71 26.322 16.637 26.245 C 16.564 26.034 16.422 25.875 16.216 25.759 C 16.219 25.669 16.173 25.608 16.073 25.579 C 16.013 25.559 15.989 25.519 16.003 25.458 C 16.007 25.367 15.961 25.305 15.861 25.278 C 15.777 25.218 15.732 25.135 15.72 25.037 C 15.686 24.895 15.616 24.775 15.508 24.675 C 15.448 24.654 15.425 24.612 15.437 24.552 C 15.375 24.251 15.257 23.968 15.083 23.709 C 15.077 23.356 15.031 23.013 14.941 22.684 C 14.921 22.297 14.945 21.913 15.014 21.538 C 15.126 21.394 15.195 21.235 15.225 21.053 C 15.267 21.047 15.304 21.028 15.331 20.994 C 15.738 21.294 16.176 21.557 16.637 21.779 Z M 16.78 20.571 C 16.866 20.77 16.935 20.97 16.991 21.176 L 16.991 21.477 C 16.86 21.192 16.789 20.892 16.78 20.571 Z M 16.849 20.391 C 18.329 21.311 19.765 22.277 21.161 23.288 C 21.059 23.373 20.989 23.473 20.949 23.588 C 20.912 23.692 20.842 23.773 20.735 23.83 C 20.811 23.716 20.811 23.606 20.735 23.498 C 19.513 22.717 18.314 21.911 17.134 21.085 C 17.039 21.052 16.994 21.084 16.991 21.176 C 16.935 20.97 16.866 20.77 16.78 20.571 L 16.78 20.51 C 16.839 20.491 16.862 20.45 16.849 20.391 Z M 15.72 19.968 C 15.823 20.244 15.93 20.524 16.038 20.813 C 16.065 20.847 16.099 20.867 16.145 20.873 C 16.257 21.047 16.352 21.227 16.427 21.416 C 16.421 21.508 16.47 21.569 16.568 21.598 C 16.627 21.617 16.651 21.659 16.637 21.717 L 16.637 21.779 C 16.176 21.557 15.738 21.294 15.331 20.994 C 15.304 21.028 15.267 21.047 15.225 21.053 C 15.336 20.864 15.407 20.661 15.437 20.45 C 15.425 20.391 15.448 20.351 15.508 20.332 C 15.616 20.227 15.686 20.109 15.72 19.968 Z M 16.921 19.788 L 16.921 19.968 C 16.861 20.101 16.836 20.244 16.849 20.391 C 16.862 20.45 16.839 20.491 16.78 20.51 C 16.735 20.486 16.713 20.446 16.71 20.391 C 16.745 20.174 16.816 19.972 16.921 19.788 Z M 16.145 20.873 C 16.099 20.867 16.065 20.847 16.038 20.813 C 15.93 20.524 15.823 20.244 15.72 19.968 C 15.711 19.915 15.734 19.875 15.791 19.846 C 15.897 20.192 16.014 20.534 16.145 20.873 Z M 32.89 25.339 C 32.878 25.437 32.832 25.518 32.749 25.579 C 32.757 25.435 32.684 25.325 32.536 25.248 C 30.242 23.752 27.97 22.235 25.717 20.694 C 25.683 20.77 25.671 20.85 25.682 20.935 C 25.582 20.858 25.536 20.756 25.542 20.633 C 25.502 20.484 25.502 20.343 25.542 20.21 C 27.934 21.801 30.335 23.379 32.749 24.948 C 32.871 25.055 32.918 25.185 32.89 25.339 Z M 15.72 19.968 C 15.686 20.109 15.616 20.227 15.508 20.332 C 15.505 20.174 15.576 20.054 15.72 19.968 Z M 16.921 19.968 C 17.044 20.003 17.162 20.054 17.276 20.119 C 18.873 21.233 20.497 22.31 22.148 23.347 C 22.129 23.481 22.153 23.603 22.219 23.709 C 22.283 24.127 22.332 24.55 22.36 24.976 C 22.149 24.878 21.962 24.757 21.797 24.615 C 21.803 24.524 21.754 24.461 21.655 24.434 C 21.571 24.373 21.524 24.291 21.516 24.192 C 21.521 24.068 21.473 23.967 21.373 23.891 C 21.32 23.818 21.299 23.737 21.302 23.651 C 21.381 23.521 21.392 23.38 21.338 23.228 C 21.289 23.272 21.231 23.292 21.161 23.288 C 19.765 22.277 18.329 21.311 16.849 20.391 C 16.836 20.244 16.861 20.101 16.921 19.968 Z M 33.031 25.097 C 33.02 25.196 32.974 25.277 32.89 25.339 C 32.918 25.185 32.871 25.055 32.749 24.948 C 30.335 23.379 27.934 21.801 25.542 20.21 C 25.502 20.343 25.502 20.484 25.542 20.633 C 25.365 20.398 25.269 20.137 25.258 19.846 C 25.242 19.778 25.267 19.716 25.327 19.666 C 27.906 21.354 30.475 23.054 33.031 24.764 C 33.076 24.867 33.076 24.979 33.031 25.097 Z M 29.004 19.545 C 28.999 19.573 29.01 19.592 29.038 19.607 C 29.097 19.527 29.178 19.488 29.286 19.485 C 29.413 19.485 29.532 19.515 29.64 19.575 C 30.922 20.457 32.218 21.321 33.525 22.17 C 33.63 22.313 33.701 22.465 33.737 22.625 L 33.737 23.046 C 33.701 22.888 33.63 22.737 33.525 22.594 C 29.564 19.985 25.608 17.359 21.655 14.718 C 21.59 14.757 21.519 14.777 21.442 14.78 C 21.516 14.68 21.607 14.599 21.727 14.538 C 21.819 14.506 21.915 14.496 22.009 14.509 C 24.338 16.034 26.645 17.582 28.933 19.153 C 28.838 19.302 28.862 19.433 29.004 19.545 Z M 22.148 23.347 C 20.497 22.31 18.873 21.233 17.276 20.119 C 17.162 20.054 17.044 20.003 16.921 19.968 L 16.921 19.788 C 17.034 19.739 17.081 19.66 17.062 19.545 C 17.137 19.537 17.206 19.548 17.276 19.575 C 18.894 20.645 20.507 21.721 22.114 22.803 C 22.148 22.984 22.161 23.163 22.148 23.347 Z M 33.243 24.675 C 33.211 24.834 33.141 24.976 33.031 25.097 C 33.076 24.979 33.076 24.867 33.031 24.764 C 30.475 23.054 27.906 21.354 25.327 19.666 C 25.267 19.716 25.242 19.778 25.258 19.846 C 25.189 19.742 25.167 19.621 25.188 19.485 C 25.161 19.311 25.195 19.151 25.295 19.002 C 27.977 20.796 30.649 22.596 33.315 24.404 C 33.251 24.486 33.228 24.574 33.243 24.675 Z M 33.737 22.019 L 33.737 22.625 C 33.701 22.465 33.63 22.313 33.525 22.17 C 32.218 21.321 30.922 20.457 29.64 19.575 C 29.532 19.515 29.413 19.485 29.286 19.485 C 29.311 19.435 29.357 19.415 29.428 19.425 C 29.605 19.34 29.794 19.309 29.993 19.335 C 31.15 20.144 32.327 20.925 33.525 21.688 C 33.623 21.792 33.692 21.902 33.737 22.019 Z M 22.219 22.925 L 22.219 23.709 C 22.153 23.603 22.129 23.481 22.148 23.347 C 22.161 23.163 22.148 22.984 22.114 22.803 C 20.507 21.721 18.894 20.645 17.276 19.575 C 17.206 19.548 17.137 19.537 17.062 19.545 C 17.081 19.66 17.034 19.739 16.921 19.788 C 16.962 19.544 17.056 19.324 17.204 19.123 C 17.25 19.105 17.296 19.085 17.344 19.063 C 18.937 20.131 20.538 21.188 22.148 22.232 C 22.218 22.456 22.24 22.688 22.219 22.925 Z M 33.737 21.538 L 33.737 22.019 C 33.692 21.902 33.623 21.792 33.525 21.688 C 32.327 20.925 31.15 20.144 29.993 19.335 C 29.794 19.309 29.605 19.34 29.428 19.425 C 29.627 19.29 29.838 19.168 30.063 19.063 C 30.133 19.068 30.191 19.047 30.24 19.002 C 31.328 19.744 32.424 20.479 33.525 21.205 C 33.604 21.319 33.674 21.429 33.737 21.538 Z M 33.525 20.391 C 33.649 20.766 33.721 21.148 33.737 21.538 C 33.674 21.429 33.604 21.319 33.525 21.205 C 32.424 20.479 31.328 19.744 30.24 19.002 C 30.191 19.047 30.133 19.068 30.063 19.063 C 30.253 18.88 30.442 18.7 30.63 18.519 C 30.697 18.493 30.755 18.454 30.806 18.399 C 31.528 18.914 32.27 19.406 33.031 19.878 C 33.254 20.013 33.42 20.186 33.525 20.391 Z M 33.386 24.312 C 33.378 24.452 33.331 24.571 33.243 24.675 C 33.228 24.574 33.251 24.486 33.315 24.404 C 30.649 22.596 27.977 20.796 25.295 19.002 C 25.195 19.151 25.161 19.311 25.188 19.485 C 25.12 19.338 25.094 19.177 25.117 19.002 C 25.173 18.894 25.209 18.775 25.225 18.641 C 25.272 18.584 25.334 18.575 25.4 18.611 L 33.031 23.679 C 33.315 23.819 33.432 24.033 33.386 24.312 Z M 22.36 22.019 C 22.332 22.332 22.283 22.632 22.219 22.925 C 22.24 22.688 22.218 22.456 22.148 22.232 C 20.538 21.188 18.937 20.131 17.344 19.063 C 17.296 19.085 17.25 19.105 17.204 19.123 C 17.196 19 17.244 18.899 17.344 18.822 C 17.469 18.775 17.564 18.693 17.627 18.581 L 22.291 21.658 C 22.332 21.787 22.354 21.907 22.36 22.019 Z M 32.89 18.944 C 33.177 19.397 33.389 19.878 33.525 20.391 C 33.42 20.186 33.254 20.013 33.031 19.878 C 32.27 19.406 31.528 18.914 30.806 18.399 C 30.755 18.454 30.697 18.493 30.63 18.519 C 30.723 18.298 30.816 18.077 30.913 17.856 C 30.979 17.829 31.038 17.789 31.088 17.737 C 31.659 18.175 32.262 18.577 32.89 18.944 Z M 22.433 21.416 L 22.433 21.717 C 22.442 21.827 22.417 21.926 22.36 22.019 C 22.354 21.907 22.332 21.787 22.291 21.658 L 17.627 18.581 C 17.564 18.693 17.469 18.775 17.344 18.822 C 17.386 18.652 17.478 18.511 17.627 18.399 C 17.716 18.395 17.775 18.354 17.804 18.278 C 19.36 19.316 20.901 20.363 22.433 21.416 Z M 22.433 21.416 C 20.901 20.363 19.36 19.316 17.804 18.278 C 17.775 18.354 17.716 18.395 17.627 18.399 C 17.645 18.269 17.716 18.168 17.84 18.1 C 17.909 18.059 17.98 18.019 18.051 17.977 C 19.499 18.9 20.935 19.836 22.36 20.783 C 22.609 20.976 22.631 21.188 22.433 21.416 Z M 22.786 20.813 C 22.679 21.125 22.563 21.427 22.433 21.717 L 22.433 21.416 C 22.631 21.188 22.609 20.976 22.36 20.783 C 20.935 19.836 19.499 18.9 18.051 17.977 C 17.98 18.019 17.909 18.059 17.84 18.1 C 17.856 17.983 17.927 17.902 18.051 17.856 C 18.151 17.771 18.267 17.712 18.404 17.675 C 19.827 18.578 21.24 19.492 22.645 20.421 C 22.767 20.529 22.813 20.659 22.786 20.813 Z M 32.89 18.944 C 32.262 18.577 31.659 18.175 31.088 17.737 C 31.038 17.789 30.979 17.829 30.913 17.856 C 30.998 17.494 31.081 17.133 31.159 16.771 C 31.895 17.403 32.47 18.127 32.89 18.944 Z M 23.068 20.332 C 23.01 20.51 22.915 20.673 22.786 20.813 C 22.813 20.659 22.767 20.529 22.645 20.421 C 21.24 19.492 19.827 18.578 18.404 17.675 C 18.267 17.712 18.151 17.771 18.051 17.856 C 18.166 17.643 18.331 17.462 18.547 17.314 C 18.611 17.265 18.684 17.255 18.758 17.284 C 20.103 18.211 21.471 19.116 22.856 20 C 23.004 20.075 23.074 20.186 23.068 20.332 Z M 23.208 20.151 C 23.215 20.241 23.167 20.302 23.068 20.332 C 23.074 20.186 23.004 20.075 22.856 20 C 21.471 19.116 20.103 18.211 18.758 17.284 C 18.684 17.255 18.611 17.265 18.547 17.314 C 18.563 17.198 18.633 17.119 18.758 17.072 C 18.834 17.071 18.905 17.05 18.969 17.011 C 20.349 17.938 21.739 18.853 23.139 19.756 C 23.303 19.867 23.328 20 23.208 20.151 Z M 19.18 16.771 C 20.629 17.737 22.064 18.71 23.491 19.696 C 23.456 19.765 23.434 19.836 23.422 19.908 C 23.385 20.012 23.314 20.093 23.208 20.151 C 23.328 20 23.303 19.867 23.139 19.756 C 21.739 18.853 20.349 17.938 18.969 17.011 C 18.905 17.05 18.834 17.071 18.758 17.072 C 18.782 17.011 18.829 16.972 18.899 16.951 C 18.995 16.892 19.087 16.831 19.18 16.771 Z M 19.464 16.53 C 20.774 17.455 22.117 18.349 23.491 19.214 C 23.664 19.305 23.733 19.435 23.704 19.607 C 23.627 19.72 23.531 19.82 23.422 19.908 C 23.434 19.836 23.456 19.765 23.491 19.696 C 22.064 18.71 20.629 17.737 19.18 16.771 C 19.254 16.67 19.346 16.591 19.464 16.53 Z M 19.747 16.288 C 21.059 17.211 22.403 18.105 23.773 18.972 C 23.874 19.037 23.943 19.117 23.988 19.214 C 23.922 19.3 23.875 19.388 23.845 19.485 C 23.822 19.545 23.773 19.586 23.704 19.607 C 23.733 19.435 23.664 19.305 23.491 19.214 C 22.117 18.349 20.774 17.455 19.464 16.53 C 19.535 16.428 19.631 16.348 19.747 16.288 Z M 19.961 16.107 C 21.347 17.02 22.737 17.937 24.128 18.852 C 24.237 18.917 24.283 19.01 24.269 19.123 C 24.153 19.264 24.011 19.385 23.845 19.485 C 23.875 19.388 23.922 19.3 23.988 19.214 C 23.943 19.117 23.874 19.037 23.773 18.972 C 22.403 18.105 21.059 17.211 19.747 16.288 C 19.794 16.207 19.865 16.148 19.961 16.107 Z M 24.766 18.761 C 24.616 18.895 24.45 19.018 24.269 19.123 C 24.283 19.01 24.237 18.917 24.128 18.852 C 22.737 17.937 21.347 17.02 19.961 16.107 C 20.073 15.978 20.205 15.859 20.347 15.745 C 21.772 16.68 23.198 17.616 24.623 18.55 C 24.717 18.6 24.764 18.67 24.766 18.761 Z M 20.665 15.504 C 22.181 16.486 23.689 17.481 25.188 18.491 C 25.126 18.534 25.08 18.584 25.046 18.641 C 24.953 18.68 24.859 18.722 24.766 18.761 C 24.764 18.67 24.717 18.6 24.623 18.55 C 23.198 17.616 21.772 16.68 20.347 15.745 C 20.205 15.859 20.073 15.978 19.961 16.107 C 19.865 16.148 19.794 16.207 19.747 16.288 C 19.631 16.348 19.535 16.428 19.464 16.53 C 19.346 16.591 19.254 16.67 19.18 16.771 C 19.087 16.831 18.995 16.892 18.899 16.951 C 19.344 16.471 19.837 16.03 20.384 15.625 C 20.493 15.609 20.589 15.569 20.665 15.504 Z M 33.455 24.071 C 33.474 24.169 33.45 24.249 33.386 24.312 C 33.432 24.033 33.315 23.819 33.031 23.679 L 25.4 18.611 C 25.334 18.575 25.272 18.584 25.225 18.641 C 25.209 18.775 25.173 18.894 25.117 19.002 C 25.137 18.869 25.115 18.748 25.046 18.641 C 25.08 18.584 25.126 18.534 25.188 18.491 C 23.689 17.481 22.181 16.486 20.665 15.504 C 20.774 15.337 20.942 15.286 21.161 15.353 C 25.27 18.1 29.382 20.843 33.491 23.588 C 33.485 23.747 33.473 23.906 33.455 24.071 Z M 33.597 23.588 C 33.61 23.77 33.564 23.93 33.455 24.071 C 33.473 23.906 33.485 23.747 33.491 23.588 C 29.382 20.843 25.27 18.1 21.161 15.353 C 20.942 15.286 20.774 15.337 20.665 15.504 C 20.589 15.569 20.493 15.609 20.384 15.625 C 20.501 15.483 20.641 15.363 20.809 15.262 C 20.991 15.152 21.181 15.06 21.373 14.991 C 25.309 17.65 29.265 20.283 33.243 22.895 C 33.535 23.056 33.653 23.289 33.597 23.588 Z M 33.737 23.046 C 33.711 23.239 33.665 23.419 33.597 23.588 C 33.653 23.289 33.535 23.056 33.243 22.895 C 29.265 20.283 25.309 17.65 21.373 14.991 C 21.181 15.06 20.991 15.152 20.809 15.262 C 20.974 15.058 21.186 14.897 21.442 14.78 C 21.519 14.777 21.59 14.757 21.655 14.718 C 25.608 17.359 29.564 19.985 33.525 22.594 C 33.63 22.737 33.701 22.888 33.737 23.046 Z M 22.148 14.177 C 24.41 15.664 26.67 17.152 28.933 18.641 C 29 18.755 29.024 18.875 29.004 19.002 L 29.004 19.545 C 28.862 19.433 28.838 19.302 28.933 19.153 C 26.645 17.582 24.338 16.034 22.009 14.509 C 21.915 14.496 21.819 14.506 21.727 14.538 C 21.843 14.398 21.985 14.275 22.148 14.177 Z M 29.144 18.581 C 29.114 18.731 29.068 18.872 29.004 19.002 C 29.024 18.875 29 18.755 28.933 18.641 C 26.67 17.152 24.41 15.664 22.148 14.177 L 22.148 14.115 C 22.27 14.104 22.362 14.055 22.433 13.965 C 22.503 13.925 22.573 13.925 22.645 13.965 C 24.766 15.372 26.884 16.78 29.004 18.189 C 29.047 18.326 29.095 18.457 29.144 18.581 Z M 29.214 17.856 C 29.214 18.102 29.192 18.342 29.144 18.581 C 29.095 18.457 29.047 18.326 29.004 18.189 C 26.884 16.78 24.766 15.372 22.645 13.965 C 22.573 13.925 22.503 13.925 22.433 13.965 C 22.362 14.055 22.27 14.104 22.148 14.115 C 22.338 13.914 22.551 13.732 22.786 13.574 C 22.83 13.555 22.88 13.533 22.927 13.513 C 24.989 14.846 27.039 16.193 29.075 17.555 C 29.15 17.647 29.196 17.747 29.214 17.856 Z M 29.286 17.374 C 29.309 17.547 29.284 17.709 29.214 17.856 C 29.196 17.747 29.15 17.647 29.075 17.555 C 27.039 16.193 24.989 14.846 22.927 13.513 C 22.88 13.533 22.83 13.555 22.786 13.574 C 22.876 13.415 22.994 13.273 23.139 13.149 C 23.239 13.097 23.334 13.097 23.422 13.149 C 25.271 14.399 27.131 15.635 29.004 16.861 C 29.168 17.008 29.26 17.18 29.286 17.374 Z M 23.422 12.789 C 23.55 12.786 23.666 12.818 23.773 12.879 C 25.6 14.13 27.44 15.365 29.286 16.591 L 29.286 17.374 C 29.26 17.18 29.168 17.008 29.004 16.861 C 27.131 15.635 25.271 14.399 23.422 13.149 C 23.334 13.097 23.239 13.097 23.139 13.149 C 23.233 13.03 23.328 12.909 23.422 12.789 Z M 29.214 16.168 C 29.265 16.302 29.29 16.444 29.286 16.591 C 27.44 15.365 25.6 14.13 23.773 12.879 C 23.666 12.818 23.55 12.786 23.422 12.789 C 23.475 12.674 23.547 12.575 23.633 12.487 C 23.677 12.48 23.711 12.458 23.741 12.426 C 25.31 13.505 26.899 14.56 28.508 15.593 C 28.784 15.757 29.018 15.948 29.214 16.168 Z M 23.988 11.701 C 25.657 12.826 27.329 13.952 29.004 15.081 C 29.119 15.435 29.191 15.795 29.214 16.168 C 29.018 15.948 28.784 15.757 28.508 15.593 C 26.899 14.56 25.31 13.505 23.741 12.426 C 23.711 12.458 23.677 12.48 23.633 12.487 C 23.767 12.224 23.885 11.962 23.988 11.701 Z M 29.004 15.081 C 27.329 13.952 25.657 12.826 23.988 11.701 C 24.105 10.966 23.942 10.282 23.491 9.651 C 23.528 9.629 23.562 9.61 23.599 9.59 C 26.388 10.714 28.189 12.543 29.004 15.081 Z"/>
</svg>