<?xml version="1.0" encoding="utf-8"?>
<svg fill="none" height="55" viewBox="0 0 157 55" width="157" style="shape-rendering: geometricprecision;" xmlns="http://www.w3.org/2000/svg">
  <path d="m20 47c11.0457 0 20-8.9543 20-20s-8.9543-20-20-20-20 8.9543-20 20 8.9543 20 20 20z" fill="#fff"/>
  <path id="path4650" style="opacity: 0.932; fill: rgb(48, 86, 210); fill-opacity: 1;" d="M 18.579 38.031 L 21.867 38.031 C 21.6 39.13 21.174 40.176 20.584 41.174 C 20.304 41.345 20.063 41.308 19.861 41.058 C 19.35 40.076 18.923 39.067 18.579 38.031 Z M 17.726 36.489 C 19.433 36.479 21.143 36.489 22.851 36.516 C 23.307 36.777 23.426 37.129 23.212 37.575 C 23.111 37.682 22.99 37.767 22.851 37.83 C 21.121 37.869 19.39 37.869 17.66 37.83 C 17.202 37.596 17.079 37.263 17.299 36.832 C 17.423 36.696 17.566 36.582 17.726 36.489 Z M 13.914 32.889 C 18.173 32.862 22.422 32.889 26.662 32.975 C 26.438 33.489 26.12 33.957 25.71 34.374 C 24.939 35.1 24.074 35.72 23.113 36.232 C 22.156 36.298 21.191 36.325 20.224 36.317 C 19.301 36.308 18.383 36.299 17.463 36.289 C 15.72 35.565 14.536 34.433 13.914 32.889 Z M 16.018 31.346 C 16.09 31.425 16.155 31.51 16.215 31.605 C 16.019 31.652 15.864 31.605 15.756 31.461 C 15.824 31.464 15.891 31.483 15.952 31.518 C 16.011 31.471 16.032 31.413 16.018 31.346 Z M 24.492 31.29 C 24.492 31.366 24.537 31.404 24.625 31.404 C 24.54 31.512 24.452 31.521 24.361 31.433 C 24.4 31.377 24.443 31.327 24.492 31.29 Z M 15.426 31.29 C 15.527 31.287 15.591 31.324 15.622 31.404 C 15.523 31.409 15.457 31.369 15.426 31.29 Z M 25.02 31.176 C 24.988 31.256 24.924 31.293 24.822 31.29 C 24.853 31.209 24.919 31.172 25.02 31.176 Z M 15.886 31.003 C 15.966 31.103 16.012 31.217 16.018 31.346 C 15.899 31.262 15.858 31.148 15.886 31.003 Z M 15.098 31.119 C 15.199 31.114 15.263 31.154 15.294 31.234 C 15.193 31.238 15.128 31.2 15.098 31.119 Z M 14.9 31.003 C 15.001 31 15.065 31.038 15.098 31.119 C 14.998 31.122 14.932 31.085 14.9 31.003 Z M 24.691 30.775 C 24.7 30.959 24.634 31.113 24.492 31.234 C 24.534 31.067 24.601 30.914 24.691 30.775 Z M 25.544 30.833 C 25.515 30.913 25.45 30.952 25.348 30.948 C 25.379 30.867 25.444 30.83 25.544 30.833 Z M 14.637 30.833 C 14.763 30.846 14.851 30.902 14.9 31.003 C 14.774 30.992 14.687 30.934 14.637 30.833 Z M 15.821 30.605 C 15.853 30.735 15.876 30.87 15.886 31.003 C 15.752 30.88 15.73 30.747 15.821 30.605 Z M 14.308 30.605 C 14.456 30.636 14.567 30.712 14.637 30.833 C 14.491 30.798 14.379 30.724 14.308 30.605 Z M 25.808 30.663 C 25.719 30.719 25.633 30.775 25.544 30.833 C 25.444 30.83 25.379 30.867 25.348 30.948 C 25.278 31.064 25.166 31.14 25.02 31.176 C 24.919 31.172 24.853 31.209 24.822 31.29 C 24.77 31.342 24.704 31.38 24.625 31.404 C 24.537 31.404 24.492 31.366 24.492 31.29 L 24.492 31.234 C 24.634 31.113 24.7 30.959 24.691 30.775 C 24.67 30.63 24.693 30.497 24.757 30.377 C 24.81 30.119 24.846 29.854 24.854 29.576 C 25.248 29.831 25.631 30.098 26.006 30.377 C 25.909 30.458 25.844 30.552 25.808 30.663 Z M 13.98 30.377 C 14.128 30.409 14.238 30.484 14.308 30.605 C 14.161 30.571 14.05 30.495 13.98 30.377 Z M 13.06 29.632 C 13.406 29.839 13.714 30.086 13.98 30.377 C 13.635 30.171 13.328 29.922 13.06 29.632 Z M 15.756 29.405 C 15.739 29.788 15.763 30.168 15.821 30.547 C 15.736 30.49 15.693 30.405 15.688 30.29 C 15.662 30.1 15.641 29.909 15.622 29.718 C 15.626 29.587 15.669 29.483 15.756 29.405 Z M 12.862 29.462 C 12.994 29.462 13.06 29.519 13.06 29.632 C 12.973 29.594 12.908 29.538 12.862 29.462 Z M 12.273 28.775 C 12.465 28.884 12.597 29.035 12.665 29.235 C 12.504 29.103 12.371 28.952 12.273 28.775 Z M 26.335 30.204 C 26.179 30.377 26.006 30.528 25.808 30.663 C 25.844 30.552 25.909 30.458 26.006 30.377 C 25.631 30.098 25.248 29.831 24.854 29.576 C 24.846 29.854 24.81 30.119 24.757 30.377 C 24.761 29.91 24.697 29.453 24.56 29.005 C 24.535 28.858 24.491 28.715 24.428 28.577 C 24.451 28.504 24.496 28.486 24.56 28.52 C 25.204 28.967 25.85 29.414 26.497 29.861 C 26.467 29.977 26.412 30.093 26.335 30.204 Z M 12.14 28.604 C 12.233 28.632 12.276 28.689 12.273 28.775 C 12.179 28.749 12.135 28.693 12.14 28.604 Z M 11.943 28.319 C 12.036 28.345 12.079 28.403 12.075 28.49 C 11.982 28.464 11.938 28.407 11.943 28.319 Z M 16.018 27.862 C 16.013 28.03 15.969 28.181 15.886 28.319 C 15.87 28.148 15.916 27.995 16.018 27.862 Z M 11.615 27.748 C 11.715 27.843 11.78 27.957 11.812 28.091 C 11.678 28.01 11.612 27.896 11.615 27.748 Z M 17.463 27.691 C 17.617 27.826 17.791 27.94 17.987 28.033 C 17.986 28.121 17.944 28.15 17.856 28.119 C 17.686 27.999 17.554 27.856 17.463 27.691 Z M 26.792 29.748 C 26.687 29.935 26.535 30.088 26.335 30.204 C 26.412 30.093 26.467 29.977 26.497 29.861 C 25.85 29.414 25.204 28.967 24.56 28.52 C 24.496 28.486 24.451 28.504 24.428 28.577 C 24.491 28.715 24.535 28.858 24.56 29.005 C 24.345 28.654 24.149 28.292 23.969 27.92 C 23.905 27.82 23.905 27.726 23.969 27.632 C 24.923 28.248 25.864 28.877 26.792 29.519 C 26.845 29.587 26.845 29.664 26.792 29.748 Z M 16.149 27.52 C 16.142 27.65 16.097 27.765 16.018 27.862 C 15.988 27.719 16.032 27.605 16.149 27.52 Z M 17.331 27.52 C 17.423 27.546 17.469 27.605 17.463 27.691 C 17.37 27.664 17.327 27.607 17.331 27.52 Z M 16.411 27.063 C 16.379 27.195 16.313 27.309 16.215 27.405 C 16.222 27.306 16.245 27.213 16.281 27.119 C 16.323 27.1 16.367 27.081 16.411 27.063 Z M 17.069 27.006 C 17.162 27.078 17.207 27.174 17.202 27.291 C 17.107 27.217 17.061 27.124 17.069 27.006 Z M 11.22 26.834 C 11.381 27.079 11.491 27.347 11.549 27.632 C 11.389 27.387 11.28 27.124 11.22 26.834 Z M 17.003 26.779 C 17.014 26.68 17.002 26.583 16.971 26.491 C 16.879 26.579 16.781 26.656 16.675 26.719 C 16.712 26.61 16.777 26.516 16.872 26.435 C 16.937 26.439 16.991 26.42 17.036 26.378 C 17.087 26.522 17.076 26.656 17.003 26.779 Z M 27.187 29.291 C 27.08 29.46 26.948 29.613 26.792 29.748 C 26.845 29.664 26.845 29.587 26.792 29.519 C 25.864 28.877 24.923 28.248 23.969 27.632 C 23.905 27.726 23.905 27.82 23.969 27.92 C 23.573 27.425 23.18 26.93 22.784 26.435 C 22.69 26.311 22.636 26.176 22.621 26.034 C 24.08 27.056 25.559 28.056 27.055 29.034 C 27.157 29.096 27.202 29.182 27.187 29.291 Z M 11.088 25.863 C 11.171 26.175 11.214 26.499 11.22 26.834 C 11.108 26.526 11.064 26.201 11.088 25.863 Z M 27.384 29.005 C 27.369 29.129 27.304 29.224 27.187 29.291 C 27.202 29.182 27.157 29.096 27.055 29.034 C 25.559 28.056 24.08 27.056 22.621 26.034 C 22.636 26.176 22.69 26.311 22.784 26.435 C 22.432 26.105 22.124 25.743 21.867 25.349 C 21.854 25.289 21.867 25.231 21.896 25.176 C 23.723 26.366 25.529 27.576 27.319 28.805 C 27.375 28.862 27.395 28.928 27.384 29.005 Z M 12.862 25.176 C 12.969 25.241 13.068 25.318 13.161 25.405 C 13.19 25.351 13.203 25.296 13.192 25.234 L 13.259 25.234 C 13.276 25.335 13.254 25.433 13.192 25.52 C 13.032 25.439 12.921 25.324 12.862 25.176 Z M 12.665 24.948 C 12.782 24.992 12.848 25.07 12.862 25.176 C 12.776 25.139 12.71 25.083 12.665 25.006 L 12.665 24.948 Z M 12.469 24.663 C 12.56 24.69 12.606 24.746 12.601 24.835 C 12.509 24.808 12.464 24.75 12.469 24.663 Z M 27.648 28.604 C 27.609 28.767 27.522 28.9 27.384 29.005 C 27.395 28.928 27.375 28.862 27.319 28.805 C 25.529 27.576 23.723 26.366 21.896 25.176 C 21.867 25.231 21.854 25.289 21.867 25.349 C 21.537 25.006 21.273 24.625 21.076 24.207 C 21.066 24.127 21.077 24.051 21.109 23.979 C 23.204 25.438 25.317 26.874 27.45 28.291 C 27.588 28.364 27.655 28.468 27.648 28.604 Z M 11.549 23.748 C 11.521 23.948 11.455 24.14 11.352 24.319 C 11.324 24.491 11.26 24.642 11.155 24.778 C 11.196 24.402 11.327 24.06 11.549 23.748 Z M 16.476 26.948 C 16.488 27.006 16.465 27.043 16.411 27.063 C 16.367 27.081 16.323 27.1 16.281 27.119 C 15.33 26.455 14.365 25.799 13.387 25.149 C 13.303 25.118 13.259 25.146 13.259 25.234 L 13.192 25.234 C 13.087 25.078 13.022 24.909 12.994 24.72 L 12.994 24.435 C 12.997 24.348 13.039 24.318 13.127 24.349 C 14.224 25.131 15.339 25.894 16.476 26.634 C 16.546 26.736 16.546 26.84 16.476 26.948 Z M 12.665 25.006 C 12.71 25.083 12.776 25.139 12.862 25.176 C 12.921 25.324 13.032 25.439 13.192 25.52 C 13.254 25.433 13.276 25.335 13.259 25.234 C 13.259 25.146 13.303 25.118 13.387 25.149 C 14.365 25.799 15.33 26.455 16.281 27.119 C 16.245 27.213 16.222 27.306 16.215 27.405 C 16.225 27.462 16.205 27.499 16.149 27.52 C 16.032 27.605 15.988 27.719 16.018 27.862 C 15.916 27.995 15.87 28.148 15.886 28.319 C 15.829 28.68 15.786 29.042 15.756 29.405 C 15.669 29.483 15.626 29.587 15.622 29.718 C 15.641 29.909 15.662 30.1 15.688 30.29 C 15.693 30.405 15.736 30.49 15.821 30.547 L 15.821 30.605 C 15.73 30.747 15.752 30.88 15.886 31.003 C 15.858 31.148 15.899 31.262 16.018 31.346 C 16.032 31.413 16.011 31.471 15.952 31.518 C 15.891 31.483 15.824 31.464 15.756 31.461 C 15.689 31.471 15.645 31.451 15.622 31.404 C 15.591 31.324 15.527 31.287 15.426 31.29 C 15.36 31.299 15.315 31.28 15.294 31.234 C 15.263 31.154 15.199 31.114 15.098 31.119 C 15.065 31.038 15.001 31 14.9 31.003 C 14.851 30.902 14.763 30.846 14.637 30.833 C 14.567 30.712 14.456 30.636 14.308 30.605 C 14.238 30.484 14.128 30.409 13.98 30.377 C 13.714 30.086 13.406 29.839 13.06 29.632 C 13.06 29.519 12.994 29.462 12.862 29.462 C 12.798 29.386 12.733 29.308 12.665 29.235 C 12.597 29.035 12.465 28.884 12.273 28.775 C 12.276 28.689 12.233 28.632 12.14 28.604 C 12.084 28.585 12.062 28.547 12.075 28.49 C 12.079 28.403 12.036 28.345 11.943 28.319 C 11.865 28.262 11.823 28.184 11.812 28.091 C 11.78 27.957 11.715 27.843 11.615 27.748 C 11.559 27.728 11.538 27.689 11.549 27.632 C 11.491 27.347 11.381 27.079 11.22 26.834 C 11.214 26.499 11.171 26.175 11.088 25.863 C 11.069 25.497 11.091 25.133 11.155 24.778 C 11.26 24.642 11.324 24.491 11.352 24.319 C 11.391 24.313 11.425 24.295 11.45 24.263 C 11.829 24.547 12.236 24.796 12.665 25.006 Z M 12.798 23.863 C 12.878 24.051 12.942 24.24 12.994 24.435 L 12.994 24.72 C 12.872 24.451 12.806 24.167 12.798 23.863 Z M 12.862 23.692 C 14.238 24.563 15.574 25.478 16.872 26.435 C 16.777 26.516 16.712 26.61 16.675 26.719 C 16.64 26.818 16.575 26.894 16.476 26.948 C 16.546 26.84 16.546 26.736 16.476 26.634 C 15.339 25.894 14.224 25.131 13.127 24.349 C 13.039 24.318 12.997 24.348 12.994 24.435 C 12.942 24.24 12.878 24.051 12.798 23.863 L 12.798 23.805 C 12.853 23.787 12.874 23.748 12.862 23.692 Z M 11.812 23.292 C 11.908 23.553 12.007 23.818 12.108 24.092 C 12.133 24.124 12.164 24.143 12.207 24.149 C 12.311 24.313 12.4 24.484 12.469 24.663 C 12.464 24.75 12.509 24.808 12.601 24.835 C 12.655 24.853 12.678 24.893 12.665 24.948 L 12.665 25.006 C 12.236 24.796 11.829 24.547 11.45 24.263 C 11.425 24.295 11.391 24.313 11.352 24.319 C 11.455 24.14 11.521 23.948 11.549 23.748 C 11.538 23.692 11.559 23.654 11.615 23.636 C 11.715 23.537 11.78 23.425 11.812 23.292 Z M 12.929 23.121 L 12.929 23.292 C 12.873 23.418 12.85 23.553 12.862 23.692 C 12.874 23.748 12.853 23.787 12.798 23.805 C 12.756 23.782 12.735 23.744 12.733 23.692 C 12.765 23.487 12.831 23.296 12.929 23.121 Z M 12.207 24.149 C 12.164 24.143 12.133 24.124 12.108 24.092 C 12.007 23.818 11.908 23.553 11.812 23.292 C 11.804 23.242 11.825 23.204 11.878 23.176 C 11.977 23.504 12.085 23.828 12.207 24.149 Z M 27.779 28.377 C 27.768 28.47 27.725 28.546 27.648 28.604 C 27.655 28.468 27.588 28.364 27.45 28.291 C 25.317 26.874 23.204 25.438 21.109 23.979 C 21.077 24.051 21.066 24.127 21.076 24.207 C 20.983 24.134 20.94 24.038 20.946 23.921 C 20.909 23.78 20.909 23.647 20.946 23.521 C 23.17 25.027 25.403 26.521 27.648 28.007 C 27.761 28.108 27.805 28.231 27.779 28.377 Z M 11.812 23.292 C 11.78 23.425 11.715 23.537 11.615 23.636 C 11.612 23.487 11.678 23.373 11.812 23.292 Z M 12.929 23.292 C 13.043 23.325 13.153 23.373 13.259 23.435 C 14.744 24.489 16.254 25.509 17.79 26.491 C 17.772 26.618 17.794 26.733 17.856 26.834 C 17.915 27.229 17.961 27.63 17.987 28.033 C 17.791 27.94 17.617 27.826 17.463 27.691 C 17.469 27.605 17.423 27.546 17.331 27.52 C 17.253 27.462 17.209 27.385 17.202 27.291 C 17.207 27.174 17.162 27.078 17.069 27.006 C 17.02 26.937 17 26.86 17.003 26.779 C 17.076 26.656 17.087 26.522 17.036 26.378 C 16.991 26.42 16.937 26.439 16.872 26.435 C 15.574 25.478 14.238 24.563 12.862 23.692 C 12.85 23.553 12.873 23.418 12.929 23.292 Z M 27.91 28.148 C 27.9 28.242 27.857 28.318 27.779 28.377 C 27.805 28.231 27.761 28.108 27.648 28.007 C 25.403 26.521 23.17 25.027 20.946 23.521 C 20.909 23.647 20.909 23.78 20.946 23.921 C 20.781 23.699 20.692 23.452 20.682 23.176 C 20.667 23.112 20.69 23.053 20.746 23.006 C 23.144 24.604 25.533 26.214 27.91 27.833 C 27.952 27.93 27.952 28.036 27.91 28.148 Z M 24.165 22.891 C 24.161 22.918 24.171 22.936 24.197 22.95 C 24.252 22.874 24.327 22.837 24.428 22.834 C 24.546 22.834 24.656 22.863 24.757 22.92 C 25.949 23.755 27.154 24.573 28.37 25.377 C 28.467 25.512 28.533 25.656 28.567 25.807 L 28.567 26.206 C 28.533 26.056 28.467 25.913 28.37 25.778 C 24.686 23.308 21.007 20.822 17.331 18.321 C 17.271 18.358 17.205 18.377 17.133 18.38 C 17.202 18.285 17.287 18.208 17.398 18.151 C 17.484 18.12 17.573 18.111 17.66 18.123 C 19.826 19.567 21.972 21.033 24.099 22.52 C 24.011 22.661 24.033 22.785 24.165 22.891 Z M 17.79 26.491 C 16.254 25.509 14.744 24.489 13.259 23.435 C 13.153 23.373 13.043 23.325 12.929 23.292 L 12.929 23.121 C 13.034 23.075 13.078 23 13.06 22.891 C 13.13 22.884 13.194 22.894 13.259 22.92 C 14.764 23.933 16.264 24.951 17.758 25.976 C 17.79 26.147 17.802 26.317 17.79 26.491 Z M 28.107 27.748 C 28.078 27.899 28.013 28.033 27.91 28.148 C 27.952 28.036 27.952 27.93 27.91 27.833 C 25.533 26.214 23.144 24.604 20.746 23.006 C 20.69 23.053 20.667 23.112 20.682 23.176 C 20.618 23.078 20.597 22.963 20.617 22.834 C 20.592 22.67 20.623 22.518 20.716 22.377 C 23.21 24.076 25.695 25.78 28.174 27.492 C 28.115 27.569 28.093 27.653 28.107 27.748 Z M 28.567 25.234 L 28.567 25.807 C 28.533 25.656 28.467 25.512 28.37 25.377 C 27.154 24.573 25.949 23.755 24.757 22.92 C 24.656 22.863 24.546 22.834 24.428 22.834 C 24.451 22.787 24.494 22.768 24.56 22.778 C 24.724 22.697 24.9 22.668 25.085 22.692 C 26.161 23.458 27.256 24.198 28.37 24.92 C 28.461 25.019 28.525 25.123 28.567 25.234 Z M 17.856 26.091 L 17.856 26.834 C 17.794 26.733 17.772 26.618 17.79 26.491 C 17.802 26.317 17.79 26.147 17.758 25.976 C 16.264 24.951 14.764 23.933 13.259 22.92 C 13.194 22.894 13.13 22.884 13.06 22.891 C 13.078 23 13.034 23.075 12.929 23.121 C 12.967 22.89 13.054 22.682 13.192 22.492 C 13.235 22.475 13.278 22.456 13.322 22.435 C 14.804 23.446 16.292 24.447 17.79 25.435 C 17.855 25.647 17.875 25.867 17.856 26.091 Z M 28.567 24.778 L 28.567 25.234 C 28.525 25.123 28.461 25.019 28.37 24.92 C 27.256 24.198 26.161 23.458 25.085 22.692 C 24.9 22.668 24.724 22.697 24.56 22.778 C 24.745 22.65 24.941 22.534 25.15 22.435 C 25.215 22.44 25.269 22.42 25.315 22.377 C 26.327 23.08 27.346 23.776 28.37 24.463 C 28.443 24.571 28.508 24.675 28.567 24.778 Z M 28.37 23.692 C 28.485 24.047 28.552 24.409 28.567 24.778 C 28.508 24.675 28.443 24.571 28.37 24.463 C 27.346 23.776 26.327 23.08 25.315 22.377 C 25.269 22.42 25.215 22.44 25.15 22.435 C 25.327 22.262 25.503 22.091 25.677 21.92 C 25.74 21.895 25.794 21.858 25.841 21.806 C 26.513 22.294 27.203 22.76 27.91 23.207 C 28.118 23.334 28.272 23.498 28.37 23.692 Z M 28.24 27.405 C 28.233 27.537 28.189 27.65 28.107 27.748 C 28.093 27.653 28.115 27.569 28.174 27.492 C 25.695 25.78 23.21 24.076 20.716 22.377 C 20.623 22.518 20.592 22.67 20.617 22.834 C 20.553 22.695 20.529 22.543 20.551 22.377 C 20.603 22.275 20.636 22.162 20.651 22.035 C 20.695 21.981 20.752 21.973 20.814 22.007 L 27.91 26.805 C 28.174 26.938 28.283 27.14 28.24 27.405 Z M 17.987 25.234 C 17.961 25.53 17.915 25.814 17.856 26.091 C 17.875 25.867 17.855 25.647 17.79 25.435 C 16.292 24.447 14.804 23.446 13.322 22.435 C 13.278 22.456 13.235 22.475 13.192 22.492 C 13.185 22.375 13.229 22.28 13.322 22.207 C 13.438 22.162 13.527 22.085 13.585 21.979 L 17.923 24.892 C 17.961 25.014 17.981 25.128 17.987 25.234 Z M 27.779 22.322 C 28.046 22.751 28.243 23.207 28.37 23.692 C 28.272 23.498 28.118 23.334 27.91 23.207 C 27.203 22.76 26.513 22.294 25.841 21.806 C 25.794 21.858 25.74 21.895 25.677 21.92 C 25.764 21.711 25.85 21.501 25.941 21.292 C 26.002 21.267 26.057 21.229 26.103 21.179 C 26.634 21.594 27.195 21.975 27.779 22.322 Z M 18.055 24.663 L 18.055 24.948 C 18.063 25.052 18.04 25.146 17.987 25.234 C 17.981 25.128 17.961 25.014 17.923 24.892 L 13.585 21.979 C 13.527 22.085 13.438 22.162 13.322 22.207 C 13.361 22.046 13.447 21.912 13.585 21.806 C 13.668 21.802 13.723 21.764 13.75 21.692 C 15.197 22.674 16.63 23.666 18.055 24.663 Z M 18.055 24.663 C 16.63 23.666 15.197 22.674 13.75 21.692 C 13.723 21.764 13.668 21.802 13.585 21.806 C 13.602 21.683 13.668 21.588 13.783 21.523 C 13.848 21.484 13.914 21.446 13.98 21.407 C 15.326 22.281 16.662 23.167 17.987 24.063 C 18.218 24.246 18.239 24.447 18.055 24.663 Z M 18.383 24.092 C 18.283 24.387 18.176 24.673 18.055 24.948 L 18.055 24.663 C 18.239 24.447 18.218 24.246 17.987 24.063 C 16.662 23.167 15.326 22.281 13.98 21.407 C 13.914 21.446 13.848 21.484 13.783 21.523 C 13.798 21.412 13.864 21.336 13.98 21.292 C 14.073 21.212 14.181 21.156 14.308 21.121 C 15.631 21.976 16.945 22.841 18.252 23.721 C 18.365 23.823 18.408 23.946 18.383 24.092 Z M 27.779 22.322 C 27.195 21.975 26.634 21.594 26.103 21.179 C 26.057 21.229 26.002 21.267 25.941 21.292 C 26.02 20.949 26.097 20.608 26.169 20.265 C 26.854 20.863 27.389 21.549 27.779 22.322 Z M 18.645 23.636 C 18.591 23.805 18.503 23.959 18.383 24.092 C 18.408 23.946 18.365 23.823 18.252 23.721 C 16.945 22.841 15.631 21.976 14.308 21.121 C 14.181 21.156 14.073 21.212 13.98 21.292 C 14.087 21.09 14.24 20.919 14.441 20.779 C 14.5 20.733 14.568 20.723 14.637 20.751 C 15.888 21.628 17.16 22.485 18.448 23.322 C 18.586 23.393 18.651 23.498 18.645 23.636 Z M 18.775 23.465 C 18.782 23.55 18.737 23.608 18.645 23.636 C 18.651 23.498 18.586 23.393 18.448 23.322 C 17.16 22.485 15.888 21.628 14.637 20.751 C 14.568 20.723 14.5 20.733 14.441 20.779 C 14.456 20.669 14.521 20.594 14.637 20.55 C 14.708 20.549 14.774 20.529 14.833 20.492 C 16.117 21.37 17.409 22.236 18.711 23.091 C 18.864 23.196 18.887 23.322 18.775 23.465 Z M 15.03 20.265 C 16.377 21.179 17.712 22.101 19.039 23.034 C 19.006 23.1 18.986 23.167 18.974 23.235 C 18.94 23.333 18.874 23.41 18.775 23.465 C 18.887 23.322 18.864 23.196 18.711 23.091 C 17.409 22.236 16.117 21.37 14.833 20.492 C 14.774 20.529 14.708 20.549 14.637 20.55 C 14.659 20.492 14.703 20.455 14.768 20.435 C 14.858 20.379 14.943 20.322 15.03 20.265 Z M 15.294 20.037 C 16.512 20.912 17.761 21.759 19.039 22.578 C 19.199 22.664 19.264 22.787 19.237 22.95 C 19.165 23.057 19.076 23.152 18.974 23.235 C 18.986 23.167 19.006 23.1 19.039 23.034 C 17.712 22.101 16.377 21.179 15.03 20.265 C 15.098 20.169 15.184 20.094 15.294 20.037 Z M 15.557 19.808 C 16.777 20.681 18.027 21.528 19.301 22.349 C 19.395 22.41 19.459 22.486 19.501 22.578 C 19.439 22.659 19.396 22.743 19.368 22.834 C 19.346 22.891 19.301 22.93 19.237 22.95 C 19.264 22.787 19.199 22.664 19.039 22.578 C 17.761 21.759 16.512 20.912 15.294 20.037 C 15.36 19.94 15.449 19.864 15.557 19.808 Z M 15.756 19.636 C 17.045 20.501 18.337 21.369 19.631 22.235 C 19.732 22.297 19.775 22.385 19.762 22.492 C 19.654 22.625 19.522 22.74 19.368 22.834 C 19.396 22.743 19.439 22.659 19.501 22.578 C 19.459 22.486 19.395 22.41 19.301 22.349 C 18.027 21.528 16.777 20.681 15.557 19.808 C 15.601 19.731 15.667 19.675 15.756 19.636 Z M 20.224 22.149 C 20.085 22.276 19.93 22.392 19.762 22.492 C 19.775 22.385 19.732 22.297 19.631 22.235 C 18.337 21.369 17.045 20.501 15.756 19.636 C 15.86 19.514 15.983 19.401 16.115 19.293 C 17.44 20.179 18.766 21.065 20.091 21.949 C 20.179 21.997 20.222 22.063 20.224 22.149 Z M 16.411 19.065 C 17.82 19.995 19.223 20.937 20.617 21.893 C 20.559 21.934 20.516 21.981 20.485 22.035 C 20.398 22.072 20.311 22.112 20.224 22.149 C 20.222 22.063 20.179 21.997 20.091 21.949 C 18.766 21.065 17.44 20.179 16.115 19.293 C 15.983 19.401 15.86 19.514 15.756 19.636 C 15.667 19.675 15.601 19.731 15.557 19.808 C 15.449 19.864 15.36 19.94 15.294 20.037 C 15.184 20.094 15.098 20.169 15.03 20.265 C 14.943 20.322 14.858 20.379 14.768 20.435 C 15.182 19.981 15.641 19.563 16.149 19.18 C 16.251 19.165 16.34 19.127 16.411 19.065 Z M 28.305 27.176 C 28.322 27.269 28.3 27.345 28.24 27.405 C 28.283 27.14 28.174 26.938 27.91 26.805 L 20.814 22.007 C 20.752 21.973 20.695 21.981 20.651 22.035 C 20.636 22.162 20.603 22.275 20.551 22.377 C 20.569 22.251 20.549 22.137 20.485 22.035 C 20.516 21.981 20.559 21.934 20.617 21.893 C 19.223 20.937 17.82 19.995 16.411 19.065 C 16.512 18.907 16.668 18.859 16.872 18.922 C 20.693 21.523 24.517 24.12 28.338 26.719 C 28.332 26.87 28.321 27.02 28.305 27.176 Z M 28.437 26.719 C 28.449 26.891 28.406 27.043 28.305 27.176 C 28.321 27.02 28.332 26.87 28.338 26.719 C 24.517 24.12 20.693 21.523 16.872 18.922 C 16.668 18.859 16.512 18.907 16.411 19.065 C 16.34 19.127 16.251 19.165 16.149 19.18 C 16.258 19.045 16.388 18.932 16.544 18.836 C 16.714 18.732 16.89 18.645 17.069 18.58 C 20.729 21.097 24.408 23.59 28.107 26.063 C 28.379 26.215 28.489 26.436 28.437 26.719 Z M 28.567 26.206 C 28.543 26.389 28.5 26.559 28.437 26.719 C 28.489 26.436 28.379 26.215 28.107 26.063 C 24.408 23.59 20.729 21.097 17.069 18.58 C 16.89 18.645 16.714 18.732 16.544 18.836 C 16.698 18.643 16.895 18.491 17.133 18.38 C 17.205 18.377 17.271 18.358 17.331 18.321 C 21.007 20.822 24.686 23.308 28.37 25.778 C 28.467 25.913 28.533 26.056 28.567 26.206 Z M 17.79 17.809 C 19.893 19.217 21.995 20.626 24.099 22.035 C 24.162 22.143 24.184 22.257 24.165 22.377 L 24.165 22.891 C 24.033 22.785 24.011 22.661 24.099 22.52 C 21.972 21.033 19.826 19.567 17.66 18.123 C 17.573 18.111 17.484 18.12 17.398 18.151 C 17.506 18.018 17.638 17.902 17.79 17.809 Z M 24.296 21.979 C 24.268 22.121 24.225 22.254 24.165 22.377 C 24.184 22.257 24.162 22.143 24.099 22.035 C 21.995 20.626 19.893 19.217 17.79 17.809 L 17.79 17.75 C 17.903 17.74 17.989 17.693 18.055 17.608 C 18.12 17.57 18.185 17.57 18.252 17.608 C 20.224 18.94 22.194 20.273 24.165 21.607 C 24.205 21.737 24.25 21.861 24.296 21.979 Z M 24.361 21.292 C 24.361 21.525 24.34 21.752 24.296 21.979 C 24.25 21.861 24.205 21.737 24.165 21.607 C 22.194 20.273 20.224 18.94 18.252 17.608 C 18.185 17.57 18.12 17.57 18.055 17.608 C 17.989 17.693 17.903 17.74 17.79 17.75 C 17.966 17.56 18.164 17.388 18.383 17.238 C 18.424 17.22 18.47 17.199 18.514 17.18 C 20.432 18.442 22.338 19.718 24.231 21.007 C 24.301 21.094 24.344 21.189 24.361 21.292 Z M 24.428 20.836 C 24.449 21 24.426 21.153 24.361 21.292 C 24.344 21.189 24.301 21.094 24.231 21.007 C 22.338 19.718 20.432 18.442 18.514 17.18 C 18.47 17.199 18.424 17.22 18.383 17.238 C 18.467 17.087 18.576 16.953 18.711 16.836 C 18.804 16.786 18.893 16.786 18.974 16.836 C 20.694 18.019 22.424 19.189 24.165 20.35 C 24.318 20.489 24.403 20.652 24.428 20.836 Z M 18.974 16.495 C 19.093 16.492 19.201 16.522 19.301 16.58 C 21 17.764 22.711 18.934 24.428 20.094 L 24.428 20.836 C 24.403 20.652 24.318 20.489 24.165 20.35 C 22.424 19.189 20.694 18.019 18.974 16.836 C 18.893 16.786 18.804 16.786 18.711 16.836 C 18.799 16.723 18.887 16.608 18.974 16.495 Z M 24.361 19.694 C 24.408 19.821 24.431 19.955 24.428 20.094 C 22.711 18.934 21 17.764 19.301 16.58 C 19.201 16.522 19.093 16.492 18.974 16.495 C 19.024 16.386 19.091 16.292 19.171 16.209 C 19.212 16.202 19.243 16.181 19.271 16.151 C 20.73 17.173 22.208 18.172 23.704 19.15 C 23.961 19.305 24.178 19.486 24.361 19.694 Z M 19.501 15.465 C 21.053 16.53 22.608 17.596 24.165 18.665 C 24.272 19 24.339 19.341 24.361 19.694 C 24.178 19.486 23.961 19.305 23.704 19.15 C 22.208 18.172 20.73 17.173 19.271 16.151 C 19.243 16.181 19.212 16.202 19.171 16.209 C 19.295 15.96 19.405 15.712 19.501 15.465 Z M 24.165 18.665 C 22.608 17.596 21.053 16.53 19.501 15.465 C 19.61 14.769 19.458 14.121 19.039 13.524 C 19.073 13.503 19.105 13.485 19.139 13.466 C 21.733 14.53 23.407 16.262 24.165 18.665 Z"/>
  <text style="fill: rgb(255, 255, 255); font-family: 'Arial Narrow'; font-size: 38.3px; letter-spacing: 1px; white-space: pre;" transform="matrix(1.035161, 0, 0, 1.017972, -1.8446, -0.64597)" x="47.403" y="42.109">FLARE</text>
</svg>